<?xml version="1.0" encoding="UTF-8"?>
<svg version="1.1" xmlns="http://www.w3.org/2000/svg" width="1024" height="1024">
<path d="M0 0 C337.92 0 675.84 0 1024 0 C1024 337.92 1024 675.84 1024 1024 C686.08 1024 348.16 1024 0 1024 C0 686.08 0 348.16 0 0 Z " fill="#FDFDFD" transform="translate(0,0)"/>
<path d="M0 0 C3.13576152 2.88840272 5.15369248 5.71098562 7.1796875 9.453125 C8.06732788 11.07565186 8.06732788 11.07565186 8.97290039 12.73095703 C9.4372197 13.59022797 9.4372197 13.59022797 9.91091919 14.46685791 C11.56732821 17.53051461 13.24719851 20.58126498 14.92578125 23.6328125 C15.26731735 24.2547348 15.60885345 24.8766571 15.96073914 25.51742554 C19.22607516 31.44670416 22.62753967 37.29249986 26.0625 43.125 C32.73833496 54.4786743 39.17776724 65.95737134 45.58300781 77.46533203 C47.36691351 80.65632255 49.17762599 83.83084715 51 87 C57.11661194 79.61673273 62.63019766 71.93040253 68 64 C70.74263504 64.34112559 71.75649663 64.6933193 73.50463867 66.89501953 C74.20423706 68.12647705 74.20423706 68.12647705 74.91796875 69.3828125 C75.44495361 70.29442139 75.97193848 71.20603027 76.51489258 72.14526367 C77.06685303 73.12857666 77.61881348 74.11188965 78.1875 75.125 C79.36157885 77.16559496 80.53605835 79.20595946 81.7109375 81.24609375 C82.2790918 82.24237793 82.84724609 83.23866211 83.43261719 84.26513672 C85.34561504 87.60304979 87.31898744 90.89704973 89.3125 94.1875 C99.41729804 110.96635226 109.34375357 127.85336296 119.25 144.75 C119.61198486 145.36723938 119.97396973 145.98447876 120.34692383 146.62042236 C122.01222934 149.4607399 123.67508739 152.30241487 125.33398438 155.14648438 C126.34013587 156.86979896 127.35057844 158.59063215 128.36914062 160.30664062 C131 164.7804838 131 164.7804838 131 167 C44.54 167 -41.92 167 -131 167 C-126.80030204 159.30055375 -122.56628792 151.65683158 -118.1875 144.0625 C-117.54151855 142.94206299 -116.89553711 141.82162598 -116.22998047 140.66723633 C-111.13166516 131.85411106 -105.87727251 123.14139785 -100.56585693 114.45544434 C-94.13903871 103.94406875 -87.88170287 93.34010948 -81.70751953 82.6784668 C-78.00187708 76.30597379 -74.193705 70.0641507 -70 64 C-65.67074932 65.89979656 -63.65853971 68.86698827 -61.0625 72.6875 C-60.43698242 73.58758789 -60.43698242 73.58758789 -59.79882812 74.50585938 C-58.9579909 75.71578126 -58.12024557 76.92785786 -57.28564453 78.14208984 C-55.2251682 81.11972465 -53.11107786 84.05808649 -51 87 C-48.63265519 83.99561618 -46.75226918 80.90105662 -44.91796875 77.546875 C-44.32314697 76.46543213 -43.7283252 75.38398926 -43.11547852 74.26977539 C-42.80184357 73.69695831 -42.48820862 73.12414124 -42.16506958 72.53396606 C-36.38684923 61.98929566 -30.46041726 51.54389798 -24.36669922 41.17773438 C-21.09821742 35.61160696 -17.86343563 30.02844905 -14.671875 24.41796875 C-14.12598976 23.45885338 -14.12598976 23.45885338 -13.56907654 22.48036194 C-11.7890242 19.35113439 -10.01262966 16.21989 -8.24047852 13.08618164 C-7.60037842 11.95946045 -6.96027832 10.83273926 -6.30078125 9.671875 C-5.73528564 8.6725293 -5.16979004 7.67318359 -4.5871582 6.64355469 C-3.17971941 4.29933883 -1.68825908 2.14736105 0 0 Z " fill="#272E32" transform="translate(346,438)"/>
<path d="M0 0 C17.93308946 15.47113646 30.66826652 36.60289235 35.37890625 59.84765625 C35.7965625 61.77544922 35.7965625 61.77544922 36.22265625 63.7421875 C40.33227761 83.72159385 38.90707785 102.82230568 31.37890625 121.84765625 C28.65156675 118.56828494 26.36186859 115.30020301 24.26953125 111.5859375 C23.68703613 110.56113281 23.10454102 109.53632812 22.50439453 108.48046875 C21.8854834 107.38476562 21.26657227 106.2890625 20.62890625 105.16015625 C13.28147738 92.27237382 5.57350921 79.63606066 -2.27685547 67.04882812 C-3.62109375 64.84765625 -3.62109375 64.84765625 -4.62109375 62.84765625 C-5.61109375 62.51765625 -6.60109375 62.18765625 -7.62109375 61.84765625 C-7.85054687 62.53988281 -8.08 63.23210937 -8.31640625 63.9453125 C-9.90092195 67.47014832 -12.09566125 70.29336356 -14.49609375 73.28515625 C-17.73641432 77.36680635 -20.78401753 81.47328059 -23.62109375 85.84765625 C-26.23821661 83.4849423 -27.79431124 81.01329772 -29.484375 77.9296875 C-30.03416016 76.93517578 -30.58394531 75.94066406 -31.15039062 74.91601562 C-31.73884766 73.84158203 -32.32730469 72.76714844 -32.93359375 71.66015625 C-34.19870129 69.37399216 -35.46567574 67.08886033 -36.734375 64.8046875 C-37.05769806 64.22228302 -37.38102112 63.63987854 -37.71414185 63.03982544 C-40.93192819 57.25907623 -44.2670936 51.550074 -47.62109375 45.84765625 C-53.15145274 36.43316651 -58.5327585 26.94315552 -63.828125 17.39453125 C-67.30586957 11.13625105 -70.89529917 4.9616516 -74.62109375 -1.15234375 C-77.39448822 1.3268633 -79.02898172 4.05288326 -80.8515625 7.28125 C-81.48151123 8.39089111 -82.11145996 9.50053223 -82.76049805 10.64379883 C-83.44324989 11.85755467 -84.12594697 13.07134131 -84.80859375 14.28515625 C-85.5213815 15.54415268 -86.23468763 16.80285576 -86.94848633 18.0612793 C-88.43377492 20.68069346 -89.91681125 23.3013643 -91.3984375 25.92285156 C-93.5136185 29.66199183 -95.64255783 33.39311826 -97.77734375 37.12109375 C-98.1129129 37.70711365 -98.44848206 38.29313354 -98.79421997 38.89691162 C-99.46581647 40.06956489 -100.13745719 41.24219284 -100.80914307 42.41479492 C-106.76016699 52.80719066 -112.67451713 63.21997061 -118.54956055 73.65551758 C-120.85746406 77.75088916 -123.16771462 81.83684191 -125.62109375 85.84765625 C-131.00659296 80.88653033 -134.90746552 74.99160833 -139.06835938 69.00195312 C-139.62587891 68.21240234 -140.18339844 67.42285156 -140.7578125 66.609375 C-141.26014404 65.88709717 -141.76247559 65.16481934 -142.2800293 64.4206543 C-142.72258057 63.90156494 -143.16513184 63.38247559 -143.62109375 62.84765625 C-144.28109375 62.84765625 -144.94109375 62.84765625 -145.62109375 62.84765625 C-147.12614739 64.91273691 -147.12614739 64.91273691 -148.6484375 67.62890625 C-149.2671875 68.68424561 -149.8859375 69.73958496 -150.5234375 70.8269043 C-151.2018792 72.00045575 -151.88026306 73.17404063 -152.55859375 74.34765625 C-153.25830188 75.54580376 -153.95883764 76.74346828 -154.66015625 77.94067383 C-155.77842501 79.85023959 -156.89593028 81.76022503 -158.01071167 83.67182922 C-162.24344601 90.92968448 -166.53847605 98.15029387 -170.83401489 105.37109375 C-172.90028502 108.84526914 -174.96366591 112.32115941 -177.02734375 115.796875 C-177.72849385 116.97747061 -178.42966338 118.15805469 -179.13085938 119.33862305 C-179.62263672 120.166604 -180.11441406 120.99458496 -180.62109375 121.84765625 C-188.13978586 107.64479495 -188.57365522 90.50401902 -187.62109375 74.84765625 C-187.58097168 74.14946777 -187.54084961 73.4512793 -187.49951172 72.73193359 C-185.48220857 43.23166653 -169.39809046 17.0403082 -147.62109375 -2.15234375 C-103.73142675 -38.84344518 -43.03647934 -35.33994056 0 0 Z " fill="#CFE7E0" transform="translate(421.62109375,440.15234375)"/>
<path d="M0 0 C1.32 0 2.64 0 4 0 C3.40890674 4.14189177 2.02500012 7.05937611 -0.09765625 10.6484375 C-0.7311499 11.73012207 -1.36464355 12.81180664 -2.01733398 13.92626953 C-2.3519162 14.49041565 -2.68649841 15.05456177 -3.03121948 15.63580322 C-4.75663247 18.54561549 -6.45957503 21.46852235 -8.1640625 24.390625 C-8.82438477 25.52177734 -9.48470703 26.65292969 -10.16503906 27.81835938 C-13.60997303 33.79153386 -16.83593543 39.87404751 -20 46 C-18.55367187 44.79150391 -18.55367187 44.79150391 -17.078125 43.55859375 C-15.8026272 42.51756246 -14.52655542 41.47723413 -13.25 40.4375 C-12.29867187 39.63795898 -12.29867187 39.63795898 -11.328125 38.82226562 C-10.709375 38.32275391 -10.090625 37.82324219 -9.453125 37.30859375 C-8.88754883 36.84251709 -8.32197266 36.37644043 -7.73925781 35.89624023 C-6 35 -6 35 -3.87695312 35.171875 C-2 36 -2 36 -0.515625 38.94140625 C-0.09796875 40.13636719 0.3196875 41.33132813 0.75 42.5625 C1.17796875 43.76003906 1.6059375 44.95757812 2.046875 46.19140625 C2.36140625 47.11824219 2.6759375 48.04507813 3 49 C3.66 47.35 4.32 45.7 5 44 C5.33 44 5.66 44 6 44 C6 46.31 6 48.62 6 51 C10.82921763 47.89996438 10.82921763 47.89996438 15 44 C15.66 44.33 16.32 44.66 17 45 C15.8758824 46.29243468 14.75067408 47.58392075 13.625 48.875 C12.99851562 49.59429687 12.37203125 50.31359375 11.7265625 51.0546875 C10.52573166 52.4076598 9.2791655 53.7208345 8 55 C8 55.99 8 56.98 8 58 C10.24974886 60.16590459 10.24974886 60.16590459 13.125 62.3125 C14.12273437 63.10914063 15.12046875 63.90578125 16.1484375 64.7265625 C17.08945312 65.47679687 18.03046875 66.22703125 19 67 C21.38380216 68.94071626 23.05774093 70.57217616 25 73 C24.87842196 79.02278913 21.67496292 84.27840074 19.0625 89.5625 C18.5768457 90.56522949 18.09119141 91.56795898 17.59082031 92.60107422 C15.09542923 97.75094767 12.5624737 102.88127383 10.01171875 108.00390625 C9.31453735 109.42304321 9.31453735 109.42304321 8.60327148 110.87084961 C7.71767557 112.67319626 6.82046796 114.46989509 5.91040039 116.26000977 C5.51199951 117.07397217 5.11359863 117.88793457 4.703125 118.7265625 C4.34895508 119.43377441 3.99478516 120.14098633 3.62988281 120.86962891 C1.93029565 126.61792256 5.82514013 133.38858167 8.48297024 138.39562225 C10.85979032 142.17248601 12.75868145 144.37187299 17.17776489 145.44946289 C22.41686094 146.15589566 27.64083488 145.95826786 32.91015625 145.78125 C34.84784048 145.77383672 36.78556353 145.77349836 38.72325134 145.77990723 C43.80072402 145.77783811 48.87195308 145.68027907 53.94787598 145.56219482 C59.13613215 145.45859237 64.32453947 145.44611949 69.51367188 145.42578125 C79.67797065 145.37260793 89.83800328 145.21846043 100 145 C99.649375 144.05125 99.29875 143.1025 98.9375 142.125 C98 139 98 139 99 137 C99.66 137 100.32 137 101 137 C101.54914063 138.70349609 101.54914063 138.70349609 102.109375 140.44140625 C103.14074122 142.47787909 103.14074122 142.47787909 105 144 C109.73038339 145.07473185 114.41614821 144.97818093 119.25 144.9375 C120.56742188 144.95361328 121.88484375 144.96972656 123.2421875 144.98632812 C126.49584203 145.02169394 129.74634045 145.02503303 133 145 C133 145.99 133 146.98 133 148 C49.84 148 -33.32 148 -119 148 C-117.59029826 144.47574565 -116.29660769 141.60160068 -114.41015625 138.38671875 C-113.88252686 137.48429443 -113.35489746 136.58187012 -112.8112793 135.65209961 C-112.23418213 134.67378174 -111.65708496 133.69546387 -111.0625 132.6875 C-110.45639893 131.65439697 -109.85029785 130.62129395 -109.22583008 129.55688477 C-107.15606838 126.03464056 -105.07962054 122.51642867 -103 119 C-102.6136438 118.34668701 -102.2272876 117.69337402 -101.82922363 117.02026367 C-94.76810152 105.08433828 -87.70329839 93.15017462 -80.55285645 81.26748657 C-80.17705444 80.642966 -79.80125244 80.01844543 -79.4140625 79.375 C-78.85555603 78.44692032 -78.85555603 78.44692032 -78.2857666 77.50009155 C-75.81088974 73.37771463 -73.38534128 69.23002614 -70.98046875 65.06640625 C-70.35076172 63.98681641 -69.72105469 62.90722656 -69.07226562 61.79492188 C-67.78528741 59.5877209 -66.50972273 57.37383534 -65.24414062 55.15429688 C-64.62087891 54.09404297 -63.99761719 53.03378906 -63.35546875 51.94140625 C-62.80528076 50.98951416 -62.25509277 50.03762207 -61.68823242 49.05688477 C-61.13111572 48.37811279 -60.57399902 47.69934082 -60 47 C-58.68 47 -57.36 47 -56 47 C-54.30834961 48.6965332 -54.30834961 48.6965332 -52.65234375 51.05078125 C-52.04712891 51.89447266 -51.44191406 52.73816406 -50.81835938 53.60742188 C-50.19767578 54.50009766 -49.57699219 55.39277344 -48.9375 56.3125 C-47.69871971 58.06008788 -46.45791182 59.80624069 -45.21484375 61.55078125 C-44.66948975 62.33106689 -44.12413574 63.11135254 -43.56225586 63.9152832 C-42.1557685 65.79213827 -40.70522313 67.39604553 -39 69 C-38.58492188 68.195625 -38.16984375 67.39125 -37.7421875 66.5625 C-32.98536383 57.45046316 -27.86658315 48.5783143 -22.65478516 39.7199707 C-17.2168354 30.44470537 -11.98526193 21.06268346 -6.79858398 11.64550781 C-6.19989502 10.55979492 -5.60120605 9.47408203 -4.984375 8.35546875 C-4.45553711 7.39278076 -3.92669922 6.43009277 -3.38183594 5.43823242 C-2.32932029 3.58108157 -1.18409959 1.77614938 0 0 Z " fill="#113841" transform="translate(335,456)"/>
<path d="M0 0 C6.52860568 0.87080061 11.73561729 3.4233915 17.625 6.25 C19.17960937 6.96736328 19.17960937 6.96736328 20.765625 7.69921875 C21.76335937 8.17488281 22.76109375 8.65054687 23.7890625 9.140625 C24.69350098 9.56891602 25.59793945 9.99720703 26.52978516 10.43847656 C31.33979158 13.47907758 33.7459573 18.08344333 36.3984375 22.98828125 C36.70972595 23.55949707 37.0210144 24.13071289 37.34173584 24.71923828 C38.00922279 25.94431978 38.67473815 27.17047725 39.33843994 28.39761353 C41.11423968 31.67813245 42.90811538 34.94871248 44.703125 38.21875 C45.06596588 38.87998367 45.42880676 39.54121735 45.80264282 40.2224884 C50.7717544 49.25238607 56.00557116 58.12701606 61.23828125 67.00585938 C64.38227621 72.34925657 67.50223608 77.70667763 70.625 83.0625 C71.20523926 84.05612549 71.78547852 85.04975098 72.38330078 86.07348633 C73.45155853 87.90363773 74.51824492 89.73470766 75.58300781 91.56689453 C76.47739232 93.1026347 77.37708395 94.6353076 78.28417969 96.16357422 C81 100.78237292 81 100.78237292 81 103 C69.84821472 103.44158129 58.69852715 103.7784559 47.53975964 103.98443127 C42.3567669 104.08333765 37.17977871 104.21722824 32.00024414 104.43334961 C26.99406796 104.64091296 21.99363225 104.75359247 16.98348427 104.80266762 C15.07976081 104.83759403 13.17632936 104.90582648 11.27507591 105.00887108 C-0.80237802 105.63698438 -0.80237802 105.63698438 -6 103 C-11.0957925 98.08036661 -15.25875116 90.88531555 -17 84 C-16.56132328 80.65045559 -15.66499141 77.95009469 -14.17407227 74.93164062 C-13.80020889 74.16734741 -13.42634552 73.4030542 -13.04115295 72.61560059 C-12.63698654 71.80401489 -12.23282013 70.9924292 -11.81640625 70.15625 C-11.40083969 69.30953735 -10.98527313 68.46282471 -10.55711365 67.5904541 C-9.23105025 64.8909007 -7.89716251 62.19531088 -6.5625 59.5 C-5.23280462 56.80402758 -3.9047782 54.10724919 -2.57859802 51.4095459 C-1.75402003 49.73333562 -0.927182 48.05823471 -0.09779358 46.38439941 C3.5162665 39.77192005 3.5162665 39.77192005 5.0234375 32.57421875 C3.48266087 28.69875386 0.72517354 26.51512974 -2.375 23.8125 C-3.26058594 23.01295898 -3.26058594 23.01295898 -4.1640625 22.19726562 C-6.7081063 19.91965884 -9.14914059 17.90057294 -12 16 C-11.42582888 12.50138398 -10.26480957 10.95216818 -7.6875 8.5625 C-4.86498332 5.86775156 -2.36230338 3.11824046 0 0 Z " fill="#2D7987" transform="translate(354,498)"/>
<path d="M0 0 C9.27362912 6.64426399 14.7649995 14.82499749 17 26 C17 29.96 17 33.92 17 38 C-0.16 38 -17.32 38 -35 38 C-32.20624836 46.13808532 -32.20624836 46.13808532 -26.234375 51.078125 C-21.2611436 53.13001767 -14.78027601 52.97142174 -9.73046875 51.20703125 C-6.64042749 49.50913489 -4.96369909 47.94554864 -3 45 C-0.89535207 45.30924214 1.2087053 45.6225056 3.3125 45.9375 C4.48425781 46.11152344 5.65601563 46.28554688 6.86328125 46.46484375 C10 47 10 47 13 48 C12.14939061 53.91327253 9.44154134 57.13253543 5 61 C-5.24249978 67.35363622 -15.75478742 69.68698563 -27.71875 67.50390625 C-38.05106299 64.68165409 -45.6323308 59.05444753 -51.2890625 49.91796875 C-56.08163542 40.90172545 -56.47857067 29.55167783 -53.875 19.75 C-50.32685055 9.6914846 -44.16935829 3.37025619 -35 -2 C-24.6629317 -6.42605296 -9.69288118 -5.5527058 0 0 Z " fill="#060607" transform="translate(696,497)"/>
<path d="M0 0 C6.27 0 12.54 0 19 0 C21.63109226 5.26218453 23.79614792 9.85633502 25.69140625 15.31640625 C25.92278793 15.97656235 26.15416962 16.63671844 26.39256287 17.31687927 C27.12090001 19.39704066 27.84217811 21.47955102 28.5625 23.5625 C29.2874094 25.64864162 30.01390784 27.73420086 30.7431488 29.8188324 C31.40313512 31.70692027 32.05828469 33.59669683 32.71313477 35.48657227 C34.02176619 39.05942654 35.47035083 42.51739375 37 46 C38.71217628 43.43173558 39.61467767 41.57114335 40.60400391 38.7121582 C40.90416412 37.85149246 41.20432434 36.99082672 41.51358032 36.1040802 C41.83136444 35.17899155 42.14914856 34.25390289 42.4765625 33.30078125 C42.80667328 32.35059616 43.13678406 31.40041107 43.47689819 30.4214325 C44.53026223 27.38648991 45.57769574 24.34953837 46.625 21.3125 C47.33815202 19.25442223 48.05168899 17.19647781 48.765625 15.13867188 C50.51561632 10.09422015 52.25757547 5.04709588 54 0 C60.6 0 67.2 0 74 0 C71.8898737 7.34810582 69.40839849 14.45103169 66.6484375 21.578125 C66.02094101 23.20992706 66.02094101 23.20992706 65.38076782 24.87469482 C64.49665998 27.17137582 63.61075388 29.46736529 62.72314453 31.76269531 C61.3955484 35.19684656 60.07425032 38.63336749 58.75390625 42.0703125 C56.19331653 48.72302826 53.60410528 55.36420905 51 62 C50.58689575 63.05678955 50.1737915 64.1135791 49.74816895 65.20239258 C48.56464377 68.21763391 47.36696391 71.22681895 46.1640625 74.234375 C45.81677094 75.12183411 45.46947937 76.00929321 45.11166382 76.92364502 C41.99283811 84.63578961 38.53563324 90.84771229 31 95 C25.98326336 97.07180864 21.6429247 97.27488401 16.3125 97.1875 C15.55388672 97.18685547 14.79527344 97.18621094 14.01367188 97.18554688 C10.76100988 97.15970931 8.10473714 97.03491238 5 96 C5.59015185 90.49191603 6.56663769 85.35121931 8 80 C8.81984375 80.04640625 9.6396875 80.0928125 10.484375 80.140625 C11.56203125 80.17671875 12.6396875 80.2128125 13.75 80.25 C14.81734375 80.29640625 15.8846875 80.3428125 16.984375 80.390625 C20.67573624 79.9124694 21.7092174 78.85287278 24 76 C26.25038606 72.62442091 26.29031541 70.01089059 26 66 C25.04044088 63.24828628 24.02834045 60.66950966 22.8515625 58.015625 C22.52304291 57.25012329 22.19452332 56.48462158 21.85604858 55.69592285 C21.15218824 54.05783134 20.44368355 52.42172896 19.73095703 50.78747559 C17.87294448 46.52450574 16.05092422 42.24620369 14.2265625 37.96875 C13.86322815 37.11891541 13.4998938 36.26908081 13.12554932 35.39349365 C9.93273259 27.90142786 6.91304889 20.35525965 4 12.75 C3.58572754 11.67524414 3.17145508 10.60048828 2.74462891 9.49316406 C0 2.27070841 0 2.27070841 0 0 Z " fill="#050506" transform="translate(563,494)"/>
<path d="M0 0 C4.41863719 1.52050102 6.42617605 4.99166185 8.9375 8.6875 C9.35451172 9.28755859 9.77152344 9.88761719 10.20117188 10.50585938 C11.04323208 11.71754106 11.88097458 12.93223483 12.71435547 14.14990234 C14.04848613 16.06977362 15.43103187 17.94891757 16.81640625 19.83203125 C19 23 19 23 19 25 C18.34 25.33 17.68 25.66 17 26 C16.89300781 26.67417969 16.78601563 27.34835937 16.67578125 28.04296875 C15.69989824 32.31316205 13.4510148 35.59547646 11.1875 39.3125 C6.79083045 46.70472653 2.79193661 54.21846618 -1 61.9375 C-6.34540535 72.80439874 -11.97485089 83.49308348 -18 94 C-18.39155273 94.89783203 -18.78310547 95.79566406 -19.18652344 96.72070312 C-21 99 -21 99 -24.27807617 99.56762695 C-25.61663479 99.56683763 -26.95536025 99.5387123 -28.29296875 99.48828125 C-28.99899734 99.48120651 -29.70502594 99.47413177 -30.43244934 99.46684265 C-32.68521584 99.4388753 -34.93548648 99.37614334 -37.1875 99.3125 C-38.71545886 99.28741966 -40.24345673 99.26460601 -41.77148438 99.24414062 C-45.51528306 99.18904244 -49.25721859 99.10276286 -53 99 C-51.45161709 93.82958242 -49.97641458 89.37687759 -46.625 85.0625 C-43.60435985 80.97575156 -41.3576761 76.87387918 -39.17578125 72.296875 C-37.79698658 69.60341565 -36.12987327 67.31426959 -34.3125 64.90625 C-32.69152074 62.5519706 -31.39586 60.09032834 -30.0625 57.5625 C-22.51860527 43.57165442 -22.51860527 43.57165442 -14 41 C-13.01 41 -12.02 41 -11 41 C-10.18501438 42.6029053 -9.37310073 44.20737278 -8.5625 45.8125 C-8.11003906 46.70582031 -7.65757812 47.59914063 -7.19140625 48.51953125 C-6 51 -6 51 -5 54 C-4.01 54 -3.02 54 -2 54 C-2.33 48.39 -2.66 42.78 -3 37 C-3.33 39.64 -3.66 42.28 -4 45 C-4.66 45 -5.32 45 -6 45 C-7.32 42.36 -8.64 39.72 -10 37 C-13.10380501 37.77595125 -15.25002779 38.5268006 -18 40 C-17.48374042 37.9349617 -16.96808504 35.90135375 -16.3125 33.875 C-16.209375 33.25625 -16.10625 32.6375 -16 32 C-16.66 31.34 -17.32 30.68 -18 30 C-12.36442696 19.74139187 -6.45422628 9.76525963 0 0 Z " fill="#143841" transform="translate(276,502)"/>
<path d="M0 0 C6.6 0 13.2 0 20 0 C20 24.09 20 48.18 20 73 C35.18 73 50.36 73 66 73 C66 78.61 66 84.22 66 90 C44.22 90 22.44 90 0 90 C0 60.3 0 30.6 0 0 Z " fill="#010101" transform="translate(498,473)"/>
<path d="M0 0 C1.32 0 2.64 0 4 0 C3.40890674 4.14189177 2.02500012 7.05937611 -0.09765625 10.6484375 C-0.7311499 11.73012207 -1.36464355 12.81180664 -2.01733398 13.92626953 C-2.3519162 14.49041565 -2.68649841 15.05456177 -3.03121948 15.63580322 C-4.75663247 18.54561549 -6.45957503 21.46852235 -8.1640625 24.390625 C-8.82438477 25.52177734 -9.48470703 26.65292969 -10.16503906 27.81835938 C-13.60997303 33.79153386 -16.83593543 39.87404751 -20 46 C-18.55367187 44.79150391 -18.55367187 44.79150391 -17.078125 43.55859375 C-15.8026272 42.51756246 -14.52655542 41.47723413 -13.25 40.4375 C-12.29867187 39.63795898 -12.29867187 39.63795898 -11.328125 38.82226562 C-10.709375 38.32275391 -10.090625 37.82324219 -9.453125 37.30859375 C-8.88754883 36.84251709 -8.32197266 36.37644043 -7.73925781 35.89624023 C-6 35 -6 35 -3.87695312 35.171875 C-2 36 -2 36 -0.515625 38.94140625 C-0.09796875 40.13636719 0.3196875 41.33132813 0.75 42.5625 C1.17796875 43.76003906 1.6059375 44.95757812 2.046875 46.19140625 C2.36140625 47.11824219 2.6759375 48.04507813 3 49 C3.66 47.35 4.32 45.7 5 44 C5.33 44 5.66 44 6 44 C6 46.31 6 48.62 6 51 C10.82921763 47.89996438 10.82921763 47.89996438 15 44 C15.66 44.33 16.32 44.66 17 45 C15.8758824 46.29243468 14.75067408 47.58392075 13.625 48.875 C12.99851562 49.59429687 12.37203125 50.31359375 11.7265625 51.0546875 C10.52573166 52.4076598 9.2791655 53.7208345 8 55 C8 55.99 8 56.98 8 58 C10.24974886 60.16590459 10.24974886 60.16590459 13.125 62.3125 C14.12273437 63.10914063 15.12046875 63.90578125 16.1484375 64.7265625 C17.08945312 65.47679687 18.03046875 66.22703125 19 67 C21.38380216 68.94071626 23.05774093 70.57217616 25 73 C24.87842196 79.02278913 21.67496292 84.27840074 19.0625 89.5625 C18.5768457 90.56522949 18.09119141 91.56795898 17.59082031 92.60107422 C15.09542923 97.75094767 12.5624737 102.88127383 10.01171875 108.00390625 C9.31453735 109.42304321 9.31453735 109.42304321 8.60327148 110.87084961 C7.71767557 112.67319626 6.82046796 114.46989509 5.91040039 116.26000977 C5.51199951 117.07397217 5.11359863 117.88793457 4.703125 118.7265625 C4.34895508 119.43377441 3.99478516 120.14098633 3.62988281 120.86962891 C1.93029565 126.61792256 5.82514013 133.38858167 8.48297024 138.39562225 C10.85979032 142.17248601 12.75868145 144.37187299 17.17776489 145.44946289 C22.41686094 146.15589566 27.64083488 145.95826786 32.91015625 145.78125 C34.84784048 145.77383672 36.78556353 145.77349836 38.72325134 145.77990723 C43.80072402 145.77783811 48.87195308 145.68027907 53.94787598 145.56219482 C59.13613215 145.45859237 64.32453947 145.44611949 69.51367188 145.42578125 C79.67797065 145.37260793 89.83800328 145.21846043 100 145 C99.649375 144.05125 99.29875 143.1025 98.9375 142.125 C98 139 98 139 99 137 C99.66 137 100.32 137 101 137 C101.54914063 138.70349609 101.54914063 138.70349609 102.109375 140.44140625 C103.14074122 142.47787909 103.14074122 142.47787909 105 144 C109.73038339 145.07473185 114.41614821 144.97818093 119.25 144.9375 C120.56742188 144.95361328 121.88484375 144.96972656 123.2421875 144.98632812 C126.49584203 145.02169394 129.74634045 145.02503303 133 145 C133 145.99 133 146.98 133 148 C49.84 148 -33.32 148 -119 148 C-117.59029826 144.47574565 -116.29660769 141.60160068 -114.41015625 138.38671875 C-113.61834961 137.03247803 -113.61834961 137.03247803 -112.81054688 135.65087891 C-112.23369141 134.67296387 -111.65683594 133.69504883 -111.0625 132.6875 C-110.15661133 131.14328369 -110.15661133 131.14328369 -109.23242188 129.56787109 C-98.90697973 111.9954599 -88.50663059 94.4646982 -78 77 C-76.68 77.33 -75.36 77.66 -74 78 C-74.309375 78.763125 -74.61875 79.52625 -74.9375 80.3125 C-75.67893593 82.18789677 -76.36228217 84.08684652 -77 86 C-76.2575 85.319375 -75.515 84.63875 -74.75 83.9375 C-72 82 -72 82 -69.875 81.875 C-66.99673024 83.60196185 -66.23999551 85.962011 -65 89 C-65 89.66 -65 90.32 -65 91 C-64.34 91 -63.68 91 -63 91 C-63.04125 89.7625 -63.0825 88.525 -63.125 87.25 C-63.24851563 83.544531 -62.80568106 82.61136212 -61 79 C-61 85.93 -61 92.86 -61 100 C-61.99 100 -62.98 100 -64 100 C-65.3515625 98.42578125 -65.3515625 98.42578125 -66.625 96.3125 C-67.05039062 95.62800781 -67.47578125 94.94351563 -67.9140625 94.23828125 C-69.08383339 91.82720671 -69.58418137 89.63813822 -70 87 C-78.68936499 89.60361488 -82.5507447 93.24948987 -86.890625 101.11328125 C-87.21998047 101.73025879 -87.54933594 102.34723633 -87.88867188 102.98291016 C-90.02876403 106.86723383 -92.4140048 110.60650376 -94.75 114.375 C-97.26205341 118.46104486 -99.76179932 122.5488815 -102.1328125 126.71875 C-104.22033751 130.38720399 -106.4177618 133.97802821 -108.6328125 137.5703125 C-110.26757347 140.35077366 -110.26757347 140.35077366 -112 145 C-101.44 145 -90.88 145 -80 145 C-79.34 143.35 -78.68 141.7 -78 140 C-76.85918818 137.75708932 -75.69968254 135.53556134 -74.5078125 133.3203125 C-73.99452644 132.35828163 -73.99452644 132.35828163 -73.47087097 131.3768158 C-72.35790344 129.29162672 -71.24151425 127.20829181 -70.125 125.125 C-68.57794689 122.23125784 -67.03272941 119.33653947 -65.48828125 116.44140625 C-65.10409531 115.7216008 -64.71990936 115.00179535 -64.32408142 114.26017761 C-61.99254895 109.88483238 -59.69098155 105.49588146 -57.41796875 101.08984375 C-56.8873584 100.06165527 -56.35674805 99.0334668 -55.81005859 97.97412109 C-54.8463358 96.10040769 -53.88669085 94.22458834 -52.93212891 92.34619141 C-50.33274823 87.29852326 -47.51008594 82.66842525 -44.12573242 78.10327148 C-42.77166247 75.57338369 -42.78929569 73.82862051 -43 71 C-42.11441406 70.69449219 -42.11441406 70.69449219 -41.2109375 70.3828125 C-38.08612819 68.42842646 -37.25540898 66.17270505 -35.625 62.875 C-32.13459926 56.01767768 -28.34886599 49.37545254 -24.4375 42.75 C-18.38841019 32.47250866 -12.55136527 22.09052722 -6.79858398 11.64550781 C-6.19989502 10.55979492 -5.60120605 9.47408203 -4.984375 8.35546875 C-4.45553711 7.39278076 -3.92669922 6.43009277 -3.38183594 5.43823242 C-2.32932029 3.58108157 -1.18409959 1.77614938 0 0 Z M-6 40 C-8.7100237 42.06028626 -11.41770354 44.12363173 -14.125 46.1875 C-14.88554687 46.76564453 -15.64609375 47.34378906 -16.4296875 47.93945312 C-17.93700019 49.08942876 -19.43868781 50.24681594 -20.93457031 51.41162109 C-22.65014779 52.7309529 -24.40996508 53.99251842 -26.1796875 55.23828125 C-30.26896531 59.24260176 -32.41533413 63.93936916 -35 69 C-36.13980254 71.07377987 -37.28850948 73.14268642 -38.4453125 75.20703125 C-39.04150391 76.27759766 -39.63769531 77.34816406 -40.25195312 78.45117188 C-40.87005859 79.56041016 -41.48816406 80.66964844 -42.125 81.8125 C-46.97211998 90.51218007 -51.76475359 99.23876788 -56.5 108 C-59.91067219 114.30491424 -63.44396538 120.42101034 -67.40234375 126.40234375 C-70.67050929 131.71610924 -73.29534138 137.38439524 -76 143 C-76.495 143.99 -76.495 143.99 -77 145 C-48.95 145 -20.9 145 8 145 C6.75237371 140.00949485 4.29102059 135.97068217 1.70703125 131.57617188 C-1.05267467 126.64529947 -1.05267467 126.64529947 -0.81494141 123.73291016 C0.24246835 120.18688116 1.78514383 116.94976967 3.421875 113.64453125 C3.7637384 112.94285324 4.10560181 112.24117523 4.45782471 111.51823425 C5.54981935 109.2803034 6.64981202 107.04641238 7.75 104.8125 C8.47447853 103.33033228 9.19844184 101.84791261 9.921875 100.36523438 C10.63016041 98.91664323 11.33849306 97.46807519 12.046875 96.01953125 C12.39020874 95.31555206 12.73354248 94.61157288 13.08728027 93.88626099 C14.56865474 90.86094708 16.07265502 87.86463425 17.66601562 84.89599609 C18.13201172 84.02668457 18.59800781 83.15737305 19.078125 82.26171875 C19.4793457 81.54330811 19.88056641 80.82489746 20.29394531 80.0847168 C21.23056546 77.31922598 20.92124708 75.75070734 20 73 C18.68746623 71.31921001 18.68746623 71.31921001 16.9453125 69.9921875 C16.02298828 69.22455078 16.02298828 69.22455078 15.08203125 68.44140625 C14.43621094 67.92449219 13.79039062 67.40757812 13.125 66.875 C11.85603239 65.83162663 10.58777879 64.78738413 9.3203125 63.7421875 C8.75586426 63.2869873 8.19141602 62.83178711 7.60986328 62.36279297 C4.65323956 59.85993073 2.75437757 57.9952106 1.5 54.27734375 C1.2525 53.57416016 1.005 52.87097656 0.75 52.14648438 C0.24881066 50.67032515 -0.25118403 49.19375979 -0.75 47.71679688 C-2.33326408 43.11420009 -2.33326408 43.11420009 -6 40 Z " fill="#22272A" transform="translate(335,456)"/>
<path d="M0 0 C4.25467131 1.48478016 5.83179135 4.48047778 7.94921875 8.2109375 C8.31898331 8.84209473 8.68874786 9.47325195 9.06971741 10.12353516 C10.28506123 12.20202389 11.48601217 14.28847654 12.6875 16.375 C13.96711107 18.5702683 15.25051446 20.76328978 16.53414917 22.95620728 C17.40863815 24.45061563 18.28193925 25.9457197 19.15408325 27.4414978 C22.9236354 33.89985097 26.79728552 40.2905608 30.70401001 46.66656494 C36.40309612 55.97498912 42.01648019 65.32972214 47.49523926 74.76934814 C48.47545988 76.45773084 49.45984553 78.14369328 50.44433594 79.82958984 C51.02989258 80.8448877 51.61544922 81.86018555 52.21875 82.90625 C52.73373047 83.79634766 53.24871094 84.68644531 53.77929688 85.60351562 C54.88137369 87.76711282 55.53989448 89.62783921 56 92 C51.83781444 92.24843165 47.67960831 92.42914913 43.51220703 92.54931641 C42.09738001 92.5994188 40.68306622 92.66753362 39.27001953 92.75439453 C34.72134234 93.02686639 30.47233626 93.06108566 26 92 C22.85036046 89.16790516 21.6046747 85.86132847 20 82 C18.91261206 80.06852551 17.79815596 78.15209435 16.66015625 76.25 C15.46005592 74.16717437 14.26087497 72.08381881 13.0625 70 C12.08158971 68.29692299 11.10067779 66.59384691 10.11967468 64.89082336 C9.10231668 63.12446394 8.08533015 61.35789099 7.06835938 59.59130859 C4.99056895 55.98272833 2.90973954 52.37590661 0.828125 48.76953125 C0.32018654 47.88948929 0.32018654 47.88948929 -0.19801331 46.9916687 C-1.82391826 44.17474594 -3.44992364 41.35788116 -5.07592773 38.54101562 C-6.22122629 36.55618761 -7.36333263 34.56951238 -8.50146484 32.58056641 C-9.4250303 30.99013193 -10.36918582 29.41120418 -11.34619141 27.85302734 C-14.06168246 23.47503813 -14.06168246 23.47503813 -13.74658203 21.04833984 C-12.93508008 18.8218842 -11.92802549 17.15261841 -10.56640625 15.21484375 C-9.8403418 14.17166992 -9.8403418 14.17166992 -9.09960938 13.10742188 C-8.59236328 12.39134766 -8.08511719 11.67527344 -7.5625 10.9375 C-6.56378799 9.50912444 -5.56508955 8.08073939 -4.56640625 6.65234375 C-4.12240479 6.02320068 -3.67840332 5.39405762 -3.22094727 4.74584961 C-2.1252469 3.1790923 -1.06052059 1.59078089 0 0 Z " fill="#B5C7C5" transform="translate(414,509)"/>
<path d="M0 0 C44.55 0 89.1 0 135 0 C123.87515249 11.12484751 108.48061852 18.94521919 93 22 C92.06929688 22.20238281 91.13859375 22.40476562 90.1796875 22.61328125 C61.14669502 28.07088981 32.0369337 22.17298512 7 7 C4.41027059 5.12061956 2.26844708 3.26844708 0 1 C0 0.67 0 0.34 0 0 Z " fill="#CFE8E4" transform="translate(279,605)"/>
<path d="M0 0 C6.27 0 12.54 0 19 0 C19 31.02 19 62.04 19 94 C12.73 94 6.46 94 0 94 C0 62.98 0 31.96 0 0 Z " fill="#020203" transform="translate(764,469)"/>
<path d="M0 0 C6.27 0 12.54 0 19 0 C19 31.02 19 62.04 19 94 C12.73 94 6.46 94 0 94 C0 62.98 0 31.96 0 0 Z " fill="#050505" transform="translate(726,469)"/>
<path d="M0 0 C4.41863719 1.52050102 6.42617605 4.99166185 8.9375 8.6875 C9.35451172 9.28755859 9.77152344 9.88761719 10.20117188 10.50585938 C11.04323208 11.71754106 11.88097458 12.93223483 12.71435547 14.14990234 C14.04848613 16.06977362 15.43103187 17.94891757 16.81640625 19.83203125 C19 23 19 23 19 25 C18.01 25.495 18.01 25.495 17 26 C16.65374234 27.6640296 16.3224249 29.33118872 16 31 C14.92431641 33.23242188 14.92431641 33.23242188 13.6015625 35.46875 C13.12203125 36.28730469 12.6425 37.10585938 12.1484375 37.94921875 C11.64570313 38.79097656 11.14296875 39.63273438 10.625 40.5 C10.13 41.34175781 9.635 42.18351563 9.125 43.05078125 C8.17336253 44.66652935 7.2156446 46.27871646 6.25097656 47.88671875 C5.23770311 49.5984469 4.27820388 51.34193082 3.3359375 53.09375 C2.89507812 53.7228125 2.45421875 54.351875 2 55 C1.01 55 0.02 55 -1 55 C-2.1161656 51.28570102 -2.3124195 47.60838492 -2.5625 43.75 C-2.64628906 42.48671875 -2.73007812 41.2234375 -2.81640625 39.921875 C-2.87699219 38.95765625 -2.93757813 37.9934375 -3 37 C-3.33 39.64 -3.66 42.28 -4 45 C-4.66 45 -5.32 45 -6 45 C-7.32 42.36 -8.64 39.72 -10 37 C-13.10380501 37.77595125 -15.25002779 38.5268006 -18 40 C-17.48374042 37.9349617 -16.96808504 35.90135375 -16.3125 33.875 C-16.209375 33.25625 -16.10625 32.6375 -16 32 C-16.66 31.34 -17.32 30.68 -18 30 C-12.36442696 19.74139187 -6.45422628 9.76525963 0 0 Z " fill="#262C31" transform="translate(276,502)"/>
<path d="M0 0 C2.8276533 2.51655798 4.47935372 5.3272655 6.3359375 8.609375 C6.98248291 9.74648926 7.62902832 10.88360352 8.29516602 12.05517578 C8.98871955 13.28662871 9.68199168 14.51824016 10.375 15.75 C11.08552409 17.00653546 11.79638338 18.26288144 12.50756836 19.51904297 C13.59569486 21.44168394 14.68317591 23.3646732 15.76847839 25.28890991 C18.1481759 29.50648436 20.5556533 33.70663144 22.98046875 37.8984375 C23.58648926 38.95192383 24.19250977 40.00541016 24.81689453 41.09082031 C25.96453808 43.08563346 27.11770672 45.07727995 28.27685547 47.06542969 C28.78490723 47.95391602 29.29295898 48.84240234 29.81640625 49.7578125 C30.26443604 50.5327002 30.71246582 51.30758789 31.17407227 52.10595703 C31.44662842 52.73099121 31.71918457 53.35602539 32 54 C31.505 54.99 31.505 54.99 31 56 C30.32420898 55.65630371 29.64841797 55.31260742 28.95214844 54.95849609 C25.89279962 53.41410823 22.82183006 51.89439981 19.75 50.375 C18.15478516 49.56289063 18.15478516 49.56289063 16.52734375 48.734375 C15.50253906 48.23164063 14.47773438 47.72890625 13.421875 47.2109375 C12.47924805 46.73962402 11.53662109 46.26831055 10.56542969 45.78271484 C8.05745203 44.74965225 8.05745203 44.74965225 5.80639648 45.71289062 C3.24470489 47.53816946 1.36276166 49.7460187 -0.6875 52.125 C-2.10726684 53.76551619 -3.5401476 55.39505071 -5 57 C-5.33 57 -5.66 57 -6 57 C-6.31130348 47.62284739 -5.47482843 38.50468714 -4.40087891 29.20825195 C-4.12437239 26.80704978 -3.86030833 24.40470607 -3.59765625 22.00195312 C-2.76793896 14.56995798 -1.85868143 7.25890451 0 0 Z " fill="#CBE2DB" transform="translate(348,449)"/>
<path d="M0 0 C2.74263504 0.34112559 3.75649663 0.6933193 5.50463867 2.89501953 C6.20423706 4.12647705 6.20423706 4.12647705 6.91796875 5.3828125 C7.44495361 6.29442139 7.97193848 7.20603027 8.51489258 8.14526367 C9.06685303 9.12857666 9.61881348 10.11188965 10.1875 11.125 C11.36157885 13.16559496 12.53605835 15.20595946 13.7109375 17.24609375 C14.2790918 18.24237793 14.84724609 19.23866211 15.43261719 20.26513672 C17.34561504 23.60304979 19.31898744 26.89704973 21.3125 30.1875 C31.41729804 46.96635226 41.34375357 63.85336296 51.25 80.75 C51.61198486 81.36723938 51.97396973 81.98447876 52.34692383 82.62042236 C54.01222934 85.4607399 55.67508739 88.30241487 57.33398438 91.14648438 C58.34013587 92.86979896 59.35057844 94.59063215 60.36914062 96.30664062 C63 100.7804838 63 100.7804838 63 103 C-23.46 103 -109.92 103 -199 103 C-199 102.67 -199 102.34 -199 102 C-115.84 101.67 -32.68 101.34 53 101 C53.33 100.34 53.66 99.68 54 99 C54.66 99 55.32 99 56 99 C49.06552223 86.09696963 41.76117259 73.46638861 34.1796875 60.93359375 C31.13632429 55.90022629 28.1252636 50.84893935 25.1328125 45.78515625 C24.50931915 44.73087936 24.50931915 44.73087936 23.87322998 43.65530396 C22.2276849 40.87227375 20.5822916 38.08916911 18.94189453 35.30310059 C14.74414847 28.17499464 10.4896156 21.0891176 6.0546875 14.10546875 C5.67740509 13.50511307 5.30012268 12.90475739 4.91140747 12.28620911 C2.96662852 9.11344585 2.96662852 9.11344585 0 7 C-0.37125 7.804375 -0.37125 7.804375 -0.75 8.625 C-2.30652537 11.5823982 -4.03435673 14.29724051 -6 17 C-6.66 17 -7.32 17 -8 17 C-9.70680947 18.62553283 -11.37660195 20.29115995 -13 22 C-13.66 21.67 -14.32 21.34 -15 21 C-14.58113525 20.43490723 -14.16227051 19.86981445 -13.73071289 19.28759766 C-11.83971236 16.73457624 -9.95107936 14.1798129 -8.0625 11.625 C-7.0734668 10.29082031 -7.0734668 10.29082031 -6.06445312 8.9296875 C-5.43603516 8.07890625 -4.80761719 7.228125 -4.16015625 6.3515625 C-3.57886963 5.56604004 -2.99758301 4.78051758 -2.39868164 3.97119141 C-0.96448995 2.05636742 -0.96448995 2.05636742 0 0 Z " fill="#444B4F" transform="translate(414,502)"/>
<path d="M0 0 C0.33 0 0.66 0 1 0 C1.17337 5.11441503 0.9438772 9.82595559 0.09375 14.875 C-1.09395922 22.3295352 -1.88046313 29.8025541 -2.625 37.3125 C-2.76010754 38.65042188 -2.89552279 39.98831272 -3.03125 41.32617188 C-3.35717398 44.55049123 -3.68004116 47.7750842 -4 51 C-6.99680299 47.11802033 -8.38246025 43.62154213 -10 39 C-14.40785758 39.87570555 -17.30710183 42.31196487 -20.75 45.0625 C-21.35199219 45.53494141 -21.95398438 46.00738281 -22.57421875 46.49414062 C-24.05409943 47.65690401 -25.52768096 48.8276766 -27 50 C-27 46.70047588 -26.42691662 45.57854372 -24.8671875 42.73828125 C-24.39708252 41.8774292 -23.92697754 41.01657715 -23.44262695 40.12963867 C-22.66665161 38.73515503 -22.66665161 38.73515503 -21.875 37.3125 C-21.34672607 36.35384033 -20.81845215 35.39518066 -20.27416992 34.4074707 C-2.69840454 2.69840454 -2.69840454 2.69840454 0 0 Z " fill="#256D7C" transform="translate(342,453)"/>
<path d="M0 0 C3.08467916 2.34080742 4.24354741 4.78832938 5.765625 8.33984375 C5.765625 9.65984375 5.765625 10.97984375 5.765625 12.33984375 C-4.794375 12.33984375 -15.354375 12.33984375 -26.234375 12.33984375 C-26.234375 6.31174344 -25.00592449 5.23285431 -21.09375 1.078125 C-15.01304779 -4.60656509 -6.87814715 -3.80464439 0 0 Z " fill="#F8F8F8" transform="translate(687.234375,509.66015625)"/>
<path d="M0 0 C3.58831837 3.46107303 6.72400251 7.01949324 9.75 11 C10.52859375 12.010625 11.3071875 13.02125 12.109375 14.0625 C13.93804553 16.90374016 14.84135187 18.64572525 15 22 C14.34 22.99 13.68 23.98 13 25 C9.7421875 25.29296875 9.7421875 25.29296875 5.875 25.1875 C4.59367187 25.16042969 3.31234375 25.13335938 1.9921875 25.10546875 C1.00476563 25.07066406 0.01734375 25.03585937 -1 25 C-1.02900455 21.3958502 -1.04680018 17.79173038 -1.0625 14.1875 C-1.07087891 13.16333984 -1.07925781 12.13917969 -1.08789062 11.08398438 C-1.09111328 10.10107422 -1.09433594 9.11816406 -1.09765625 8.10546875 C-1.10289307 7.19949951 -1.10812988 6.29353027 -1.11352539 5.36010742 C-1 3 -1 3 0 0 Z " fill="#CDDDD5" transform="translate(278,510)"/>
<path d="M0 0 C0.33 0 0.66 0 1 0 C1 2.64 1 5.28 1 8 C5.29 8 9.58 8 14 8 C11.26958682 13.62630594 8.42845541 19.16638121 5.375 24.625 C4.80523437 25.64851562 4.23546875 26.67203125 3.6484375 27.7265625 C3.10445313 28.47679687 2.56046875 29.22703125 2 30 C1.01 30 0.02 30 -1 30 C-1.81097917 27.19644108 -2.08789277 24.86220541 -1.9140625 21.953125 C-1.84832031 20.8084375 -1.84832031 20.8084375 -1.78125 19.640625 C-1.7296875 18.85171875 -1.678125 18.0628125 -1.625 17.25 C-1.58117187 16.4765625 -1.53734375 15.703125 -1.4921875 14.90625 C-1.18999971 9.90336324 -0.66906369 4.9669474 0 0 Z " fill="#455C66" transform="translate(276,527)"/>
<path d="M0 0 C0.33 0 0.66 0 1 0 C1.02934711 3.49998201 1.04691445 6.99993179 1.0625 10.5 C1.07087891 11.48226562 1.07925781 12.46453125 1.08789062 13.4765625 C1.10659124 19.08674757 0.838879 24.45150899 0 30 C-0.66 30 -1.32 30 -2 30 C-3.32 27.36 -4.64 24.72 -6 22 C-9.10380501 22.77595125 -11.25002779 23.5268006 -14 25 C-13.34735091 21.64989464 -12.07599171 19.18004472 -10.3125 16.26953125 C-9.77882813 15.38458984 -9.24515625 14.49964844 -8.6953125 13.58789062 C-8.13585937 12.67201172 -7.57640625 11.75613281 -7 10.8125 C-6.16082031 9.4212793 -6.16082031 9.4212793 -5.3046875 8.00195312 C-1.1612071 1.1612071 -1.1612071 1.1612071 0 0 Z " fill="#2A7E8F" transform="translate(272,517)"/>
<path d="M0 0 C0.66 0 1.32 0 2 0 C3.32 2.64 4.64 5.28 6 8 C3.03 8 0.06 8 -3 8 C-3 7.01 -3 6.02 -3 5 C-2.34 5 -1.68 5 -1 5 C-0.67 3.35 -0.34 1.7 0 0 Z " fill="#252D30" transform="translate(471,596)"/>
<path d="M0 0 C0.33 0 0.66 0 1 0 C1.33 3.96 1.66 7.92 2 12 C2.33 12 2.66 12 3 12 C2.67 18.27 2.34 24.54 2 31 C1.67 31 1.34 31 1 31 C0.69012304 26.74630337 0.38711916 22.49219095 0.09057617 18.23754883 C-0.01135814 16.78917118 -0.11519511 15.34092616 -0.22094727 13.89282227 C-0.37231636 11.81558349 -0.51691581 9.73796934 -0.66015625 7.66015625 C-0.74918213 6.40855713 -0.83820801 5.15695801 -0.92993164 3.86743164 C-0.9530542 2.9211792 -0.97617676 1.97492676 -1 1 C-0.67 0.67 -0.34 0.34 0 0 Z " fill="#25353B" transform="translate(273,515)"/>
<path d="M0 0 C0.33 0 0.66 0 1 0 C1 2.64 1 5.28 1 8 C5.29 8 9.58 8 14 8 C9.38972558 10.30513721 4.94810499 11.56765382 0 13 C0 8.71 0 4.42 0 0 Z " fill="#97A19E" transform="translate(276,527)"/>
<path d="M0 0 C2.23960447 2.87949147 4.29864224 5.76742026 6 9 C5.67 9.66 5.34 10.32 5 11 C4.01 11.33 3.02 11.66 2 12 C-0.99481865 7.50777202 -0.99481865 7.50777202 -2 5 C-1.25 2.0625 -1.25 2.0625 0 0 Z " fill="#2C3639" transform="translate(385,505)"/>
<path d="M0 0 C3.69923924 -0.20551329 5.74718637 0.31751019 9 2 C9.66 1.67 10.32 1.34 11 1 C10.67 2.65 10.34 4.3 10 6 C6.44219804 5.39009109 3.3171411 4.4216319 0 3 C0 2.01 0 1.02 0 0 Z " fill="#23292C" transform="translate(374,504)"/>
<path d="M0 0 C0.33 0 0.66 0 1 0 C1.33 1.65 1.66 3.3 2 5 C3.32 4.67 4.64 4.34 6 4 C6.33 4.66 6.66 5.32 7 6 C5.75 8.625 5.75 8.625 4 11 C3.01 11 2.02 11 1 11 C-0.17571451 7.32589215 -0.07366746 3.83070817 0 0 Z " fill="#264E59" transform="translate(274,546)"/>
<path d="M0 0 C0.33 0.99 0.66 1.98 1 3 C0.67 3.33 0.34 3.66 0 4 C0.99 4.33 1.98 4.66 3 5 C3 5.66 3 6.32 3 7 C0.36107824 8.78305524 -1.97178863 9.99059621 -5 11 C-4.32902328 6.80639551 -2.1441606 3.59665648 0 0 Z " fill="#236C7F" transform="translate(263,531)"/>
<path d="M0 0 C0.33 0.66 0.66 1.32 1 2 C0.00390625 3.9453125 0.00390625 3.9453125 -1.4375 6.125 C-1.91058594 6.84945312 -2.38367188 7.57390625 -2.87109375 8.3203125 C-3.24363281 8.87460937 -3.61617187 9.42890625 -4 10 C-4.66 9.67 -5.32 9.34 -6 9 C-6.375 6.75 -6.375 6.75 -6 4 C-3 1.6875 -3 1.6875 0 0 Z " fill="#1F2327" transform="translate(242,564)"/>
<path d="M0 0 C1 2 1 2 0.875 3.9375 C-0.36322935 6.85618347 -2.26677251 7.50323256 -5 9 C-6.75149165 10.58245275 -6.75149165 10.58245275 -8 12 C-8.66 11.67 -9.32 11.34 -10 11 C-6.7 7.37 -3.4 3.74 0 0 Z " fill="#303639" transform="translate(353,494)"/>
<path d="M0 0 C0.66 1.32 1.32 2.64 2 4 C3.32 3.67 4.64 3.34 6 3 C6 4.65 6 6.3 6 8 C4.02 8.33 2.04 8.66 0 9 C0 6.03 0 3.06 0 0 Z " fill="#545E62" transform="translate(275,535)"/>
<path d="M0 0 C-1.2491742 3.45925163 -2.67527795 6.14693203 -5 9 C-5.33 6.69 -5.66 4.38 -6 2 C-3 0 -3 0 0 0 Z " fill="#404A50" transform="translate(289,536)"/>
<path d="M0 0 C0.99 0.33 1.98 0.66 3 1 C0.03 3.97 -2.94 6.94 -6 10 C-6.66 9.67 -7.32 9.34 -8 9 C-5.36 6.03 -2.72 3.06 0 0 Z " fill="#277383" transform="translate(353,499)"/>
<path d="M0 0 C0.66 0.33 1.32 0.66 2 1 C2 3.64 2 6.28 2 9 C-1 7 -1 7 -1.8125 5.0625 C-2 3 -2 3 0 0 Z " fill="#4B585D" transform="translate(282,537)"/>
<path d="M0 0 C1.98 0.66 3.96 1.32 6 2 C5.01 2.33 4.02 2.66 3 3 C3 3.66 3 4.32 3 5 C1.02 4.34 -0.96 3.68 -3 3 C-2.01 2.67 -1.02 2.34 0 2 C0 1.34 0 0.68 0 0 Z " fill="#2D3739" transform="translate(371,501)"/>
<path d="M0 0 C3.3 0 6.6 0 10 0 C6.66189518 1.66905241 3.53842155 2.8741386 0 4 C0 2.68 0 1.36 0 0 Z " fill="#808786" transform="translate(276,536)"/>
<path d="M0 0 C2.2477975 2.05233685 3.0022242 3.00667261 4 6 C2.35 6 0.7 6 -1 6 C-0.67 4.02 -0.34 2.04 0 0 Z " fill="#B7D2D1" transform="translate(348,449)"/>
</svg>
