<?xml version="1.0" encoding="UTF-8"?>
<svg version="1.1" xmlns="http://www.w3.org/2000/svg" width="1024" height="1024">
<path d="M0 0 C337.92 0 675.84 0 1024 0 C1024 337.92 1024 675.84 1024 1024 C686.08 1024 348.16 1024 0 1024 C0 686.08 0 348.16 0 0 Z " fill="#FCFCFC" transform="translate(0,0)"/>
<path d="M0 0 C3.56287619 1.1876254 3.81662585 1.88373017 5.64453125 5.03125 C6.14927979 5.89177979 6.65402832 6.75230957 7.17407227 7.63891602 C7.71475342 8.58307373 8.25543457 9.52723145 8.8125 10.5 C9.38218506 11.47960693 9.95187012 12.45921387 10.53881836 13.46850586 C15.98800614 22.87911709 21.28846672 32.37410736 26.578125 41.875 C29.78368282 47.62689357 33.03811688 53.34956729 36.3125 59.0625 C37.28259151 60.75778994 38.25264462 62.45310185 39.22265625 64.1484375 C40.61075449 66.57385453 41.99939658 68.9989483 43.39013672 71.42285156 C44.68094552 73.67537568 45.96618656 75.93098365 47.25 78.1875 C47.63325439 78.85338135 48.01650879 79.5192627 48.41137695 80.20532227 C51 84.7716606 51 84.7716606 51 87 C56.37990108 82.05331193 60.24728005 76.16036349 64.359375 70.15429688 C65.19082031 68.9699707 65.19082031 68.9699707 66.0390625 67.76171875 C66.53615723 67.03944092 67.03325195 66.31716309 67.54541016 65.57299805 C68.26543213 64.79436401 68.26543213 64.79436401 69 64 C69.99 64 70.98 64 72 64 C73.35595703 65.66699219 73.35595703 65.66699219 74.7578125 68.046875 C75.29245117 68.94067871 75.82708984 69.83448242 76.37792969 70.75537109 C76.95446289 71.74359863 77.53099609 72.73182617 78.125 73.75 C79.38239688 75.86222664 80.64022891 77.97419428 81.8984375 80.0859375 C82.56327148 81.20967773 83.22810547 82.33341797 83.91308594 83.49121094 C86.03256415 87.06518888 88.18769394 90.61682754 90.3515625 94.1640625 C90.7143782 94.75886414 91.07719391 95.35366577 91.45100403 95.9664917 C92.18401064 97.1679592 92.91706826 98.36939559 93.650177 99.57080078 C100.20317611 110.32063588 106.67050654 121.11702953 113 132 C114.80913414 135.10935143 116.61855795 138.21853216 118.42895508 141.32714844 C119.65157283 143.42723016 120.87284418 145.52809652 122.0925293 147.62988281 C124.63340217 151.99770029 127.19199126 156.33463601 129.91796875 160.58984375 C132 164 132 164 132 166 C45.87 166 -40.26 166 -129 166 C-127.39693829 161.19081486 -125.65151601 157.37370787 -123.0703125 153.1171875 C-122.68391098 152.46954437 -122.29750946 151.82190125 -121.8993988 151.15463257 C-120.64674886 149.05808275 -119.38599196 146.966541 -118.125 144.875 C-117.25461247 143.42185752 -116.38474249 141.96840492 -115.51538086 140.51464844 C-113.39225841 136.9671037 -111.26286624 133.42337594 -109.13116455 129.88098145 C-107.58245244 127.30567201 -106.03901436 124.72721996 -104.49609375 122.1484375 C-102.12705222 118.19083925 -99.75198815 114.23690982 -97.37402344 110.28466797 C-95.4686012 107.11641259 -93.56662944 103.94609345 -91.6652832 100.77539062 C-90.688309 99.14715409 -89.7102991 97.5195385 -88.73120117 95.89257812 C-86.14228201 91.58773266 -83.56835433 87.27481663 -81.01930237 82.94621277 C-79.64665025 80.61719425 -78.26837211 78.29152988 -76.88955688 75.96615601 C-75.88757197 74.2712659 -74.89331823 72.57181301 -73.89916992 70.87231445 C-73.29049072 69.84710693 -72.68181152 68.82189941 -72.0546875 67.765625 C-71.51312012 66.84555664 -70.97155273 65.92548828 -70.41357422 64.97753906 C-69.94709473 64.32495117 -69.48061523 63.67236328 -69 63 C-68.34 63 -67.68 63 -67 63 C-65.55126953 64.68066406 -65.55126953 64.68066406 -63.8828125 67.015625 C-63.27566406 67.85480469 -62.66851562 68.69398438 -62.04296875 69.55859375 C-61.41003906 70.44675781 -60.77710938 71.33492188 -60.125 72.25 C-58.88083798 73.98669626 -57.63353715 75.721149 -56.3828125 77.453125 C-55.82996582 78.22817383 -55.27711914 79.00322266 -54.70751953 79.80175781 C-52.95425187 82.05889565 -51.06066419 84.02315753 -49 86 C-48.64921387 85.36835937 -48.29842773 84.73671875 -47.93701172 84.0859375 C-40.74876284 71.15780087 -33.46554627 58.30216899 -25.97875977 45.54418945 C-22.10481065 38.9300368 -18.33348002 32.26876535 -14.63818359 25.5534668 C-9.89717927 16.95632725 -4.94788228 8.47924519 0 0 Z " fill="#1E2B2E" transform="translate(346,432)"/>
<path d="M0 0 C2.11996392 -0.00959585 4.23891027 -0.04060198 6.35864258 -0.07226562 C18.48883584 -0.16764146 29.84935815 1.82570378 41.2824707 5.99023438 C41.99226074 6.24627441 42.70205078 6.50231445 43.43334961 6.76611328 C58.93441652 12.54375201 71.82279147 21.88553659 83.7199707 33.24023438 C84.26129639 33.74586914 84.80262207 34.25150391 85.36035156 34.77246094 C89.84775263 39.07928125 93.38356374 43.66736646 96.7824707 48.86523438 C97.30196289 49.65430176 97.82145508 50.44336914 98.35668945 51.25634766 C102.50678505 57.67830777 105.9364515 64.09990249 108.7199707 71.24023438 C109.28264648 72.67689453 109.28264648 72.67689453 109.85668945 74.14257812 C110.94287956 77.15079979 111.86300842 80.15897887 112.7199707 83.24023438 C113.17049805 84.85091797 113.17049805 84.85091797 113.63012695 86.49414062 C118.54899782 107.70248153 117.26062899 129.90738792 109.7199707 150.24023438 C107.04624204 146.85637008 104.86528121 143.23251957 102.69262695 139.51757812 C101.89786907 138.16897801 101.10302525 136.82042852 100.30810547 135.47192383 C99.89537384 134.76991852 99.48264221 134.06791321 99.05740356 133.34463501 C93.0765552 123.17946905 87.07793879 113.02725327 80.7824707 103.05273438 C80.31784424 102.31337646 79.85321777 101.57401855 79.37451172 100.81225586 C77.0141539 97.10526386 74.5462852 93.6173851 71.7199707 90.24023438 C71.31157959 90.79485352 70.90318848 91.34947266 70.48242188 91.92089844 C68.62428557 94.44414359 66.76588082 96.96719089 64.9074707 99.49023438 C64.26487305 100.36292969 63.62227539 101.235625 62.96020508 102.13476562 C62.33823242 102.97910156 61.71625977 103.8234375 61.07543945 104.69335938 C60.50462646 105.4684082 59.93381348 106.24345703 59.34570312 107.04199219 C58.80921143 107.76741211 58.27271973 108.49283203 57.7199707 109.24023438 C57.19701416 109.99401367 56.67405762 110.74779297 56.13525391 111.52441406 C55.43468872 112.37374512 55.43468872 112.37374512 54.7199707 113.24023438 C54.0599707 113.24023438 53.3999707 113.24023438 52.7199707 113.24023438 C52.23923096 112.33821289 52.23923096 112.33821289 51.7487793 111.41796875 C45.07221382 98.91977826 38.23002673 86.54940439 31.03735352 74.34057617 C26.70192641 66.9678225 22.50048399 59.528187 18.3449707 52.05273438 C11.75989127 37.54275437 11.75989127 37.54275437 1.7199707 26.24023438 C1.35645508 27.23603516 1.35645508 27.23603516 0.9855957 28.25195312 C-0.60485939 32.00719432 -2.53627908 35.498761 -4.5300293 39.05273438 C-4.96549072 39.83334229 -5.40095215 40.6139502 -5.84960938 41.41821289 C-10.04707933 48.90237412 -14.39431017 56.29737981 -18.74047852 63.69580078 C-23.963361 72.62051576 -28.99123214 81.64568153 -33.95458984 90.71655273 C-38.16818679 98.37886361 -42.63833916 105.83181882 -47.2800293 113.24023438 C-51.66950829 108.94708357 -55.38327001 104.42811531 -59.0925293 99.55273438 C-59.69000977 98.78123047 -60.28749023 98.00972656 -60.90307617 97.21484375 C-61.46704102 96.47685547 -62.03100586 95.73886719 -62.61206055 94.97851562 C-63.12486572 94.30860596 -63.6376709 93.63869629 -64.16601562 92.94848633 C-65.2800293 91.24023438 -65.2800293 91.24023438 -65.2800293 89.24023438 C-65.9400293 89.24023438 -66.6000293 89.24023438 -67.2800293 89.24023438 C-67.55387451 89.96678223 -67.82771973 90.69333008 -68.10986328 91.44189453 C-69.23332174 94.12853774 -70.5131096 96.51468738 -72.00268555 99.01367188 C-72.53667969 99.91335693 -73.07067383 100.81304199 -73.62084961 101.73999023 C-74.18900391 102.6888208 -74.7571582 103.63765137 -75.3425293 104.61523438 C-75.92744141 105.5982251 -76.51235352 106.58121582 -77.11499023 107.59399414 C-78.83277167 110.47842367 -80.55550627 113.35983158 -82.2800293 116.24023438 C-82.94591064 117.35422607 -82.94591064 117.35422607 -83.62524414 118.49072266 C-85.45948896 121.55876444 -87.29812184 124.62407485 -89.14331055 127.68554688 C-90.69276088 130.257591 -92.22934081 132.83694683 -93.76049805 135.41992188 C-94.17138672 136.11093994 -94.58227539 136.80195801 -95.00561523 137.51391602 C-95.79376819 138.83983571 -96.57969895 140.16707971 -97.36303711 141.49584961 C-98.85347163 143.99794208 -100.2116627 146.17186778 -102.2800293 148.24023438 C-113.38475032 126.79663516 -111.06317934 98.78775234 -104.0300293 76.36523438 C-93.2322668 46.72745898 -72.0298334 23.29975437 -43.66674805 9.41210938 C-35.42769154 5.71713047 -27.05432123 3.27955133 -18.2800293 1.24023438 C-17.53172852 1.06371338 -16.78342773 0.88719238 -16.01245117 0.70532227 C-10.73109842 -0.19362135 -5.34532299 0.01457319 0 0 Z " fill="#D0E8E0" transform="translate(344.280029296875,405.759765625)"/>
<path d="M0 0 C11.28471188 2.68485782 25.27814372 7.71428072 31.99951172 17.60498047 C34.60760578 22.17399989 36.72448089 26.95451002 38.81542969 31.77783203 C41.14881616 36.86113236 44.05728618 41.59181158 46.93310547 46.38232422 C48.10999135 48.38090895 49.28442354 50.38094036 50.45654297 52.38232422 C51.05821289 53.40841797 51.65988281 54.43451172 52.27978516 55.49169922 C55.74310754 61.43390037 59.15068555 67.40794365 62.55810547 73.38232422 C63.19973633 74.50719238 63.84136719 75.63206055 64.50244141 76.79101562 C65.75200108 78.98274459 67.00071522 81.17495586 68.24853516 83.36767578 C69.63967847 85.80516111 71.03585082 88.23927146 72.43798828 90.67041016 C72.99445541 91.63749405 72.99445541 91.63749405 73.56216431 92.62411499 C74.28190784 93.87449502 75.00334685 95.12390096 75.72665405 96.3722229 C78.18310547 100.64518525 78.18310547 100.64518525 78.18310547 101.75732422 C66.97863597 102.05900001 55.77513706 102.28974519 44.56742859 102.43088245 C39.36250041 102.4986375 34.16035655 102.59045768 28.95703125 102.73803711 C23.93173078 102.87966946 18.90910061 102.95708878 13.88195801 102.99072838 C11.96787455 103.01468604 10.05393197 103.06147926 8.14099121 103.13181496 C-6.4590293 103.6471078 -6.4590293 103.6471078 -10.38580322 100.49987411 C-13.39576214 96.99282897 -15.07167206 93.01838455 -16.81689453 88.75732422 C-17.37630234 87.84478882 -17.93571014 86.93225342 -18.5120697 85.99206543 C-19.81689453 83.75732422 -19.81689453 83.75732422 -19.64331055 81.26831055 C-18.76942464 78.61309149 -17.76522592 76.12050899 -16.59423828 73.58154297 C-16.14169678 72.59573242 -15.68915527 71.60992188 -15.22290039 70.59423828 C-14.49598999 69.03527832 -14.49598999 69.03527832 -13.75439453 67.44482422 C-13.26140869 66.37844727 -12.76842285 65.31207031 -12.26049805 64.21337891 C-2.99985809 44.28401335 -2.99985809 44.28401335 1.39794922 36.64794922 C2.45871523 34.09366689 2.62804843 32.4990204 2.18310547 29.75732422 C0.24895299 27.39781486 0.24895299 27.39781486 -2.37939453 25.31982422 C-3.28560547 24.54896484 -4.19181641 23.77810547 -5.12548828 22.98388672 C-6.01365234 22.24912109 -6.90181641 21.51435547 -7.81689453 20.75732422 C-9.19357962 19.57177818 -10.56886163 18.38459811 -11.94189453 17.19482422 C-12.89064453 16.39044922 -13.83939453 15.58607422 -14.81689453 14.75732422 C-13.17901308 10.94470017 -10.77066698 8.07054904 -8.06689453 4.94482422 C-7.22642578 3.94837891 -6.38595703 2.95193359 -5.52001953 1.92529297 C-2.81689453 -0.24267578 -2.81689453 -0.24267578 0 0 Z " fill="#2D7B86" transform="translate(357.81689453125,492.24267578125)"/>
<path d="M0 0 C0.79311367 1.72850345 1.5844259 3.45783354 2.375 5.1875 C2.81585938 6.15042969 3.25671875 7.11335938 3.7109375 8.10546875 C4.53253875 9.95033701 5.30773206 11.81708167 6.01953125 13.70703125 C7.377989 16.88398224 9.48308505 18.65868377 12 21 C13.1446875 22.175625 13.1446875 22.175625 14.3125 23.375 C17.74951134 26.73208085 21.36015197 29.86593731 25 33 C24.38383374 37.50143686 22.57757698 41.14764107 20.5 45.125 C19.77555637 46.54205641 19.05298066 47.96006891 18.33203125 49.37890625 C17.95256348 50.12543457 17.5730957 50.87196289 17.18212891 51.64111328 C15.12197717 55.75205629 13.15318652 59.90575645 11.1875 64.0625 C10.81496094 64.84705566 10.44242187 65.63161133 10.05859375 66.43994141 C9.35367087 67.93247512 8.65468 69.42782874 7.96240234 70.92626953 C7.34918002 72.24760651 6.72079489 73.5620859 6.07275391 74.86669922 C4.0597546 79.09882707 3.42199376 82.34498543 4 87 C5.08377479 89.62745914 6.48542191 91.97521242 8 94.375 C12 100.95608108 12 100.95608108 12 102 C-15.72 102 -43.44 102 -72 102 C-66.80441312 92.25827461 -61.58871713 82.53757311 -56.25 72.875 C-55.73675171 71.94504715 -55.73675171 71.94504715 -55.21313477 70.99630737 C-48.15982298 58.22187174 -40.96751552 45.52861512 -33.625 32.91796875 C-30.74406833 27.9498906 -27.95118552 23.09248715 -25.8125 17.75 C-24.30742037 14.16553405 -24.30742037 14.16553405 -21.5625 12.6875 C-20.716875 12.460625 -19.87125 12.23375 -19 12 C-16.41179028 10.03727429 -13.94640906 7.9547491 -11.46484375 5.859375 C-10.21380859 4.81523437 -10.21380859 4.81523437 -8.9375 3.75 C-8.10089844 3.04359375 -7.26429688 2.3371875 -6.40234375 1.609375 C-4 0 -4 0 0 0 Z " fill="#113A41" transform="translate(332,491)"/>
<path d="M0 0 C7.57805261 6.48108192 12.61294802 13.01246941 14.20703125 23.01171875 C14.20703125 27.30171875 14.20703125 31.59171875 14.20703125 36.01171875 C-2.95296875 36.01171875 -20.11296875 36.01171875 -37.79296875 36.01171875 C-34.03155197 45.11149965 -34.03155197 45.11149965 -26.79296875 50.01171875 C-20.32943305 50.51486824 -14.26098019 50.93747055 -8.79296875 47.01171875 C-7.76519879 45.69967199 -6.76037236 44.36888787 -5.79296875 43.01171875 C-5.14070312 43.14449219 -4.4884375 43.27726563 -3.81640625 43.4140625 C0.84785995 44.35654697 5.50571579 45.26940578 10.20703125 46.01171875 C9.8298796 51.29184189 8.035132 54.47955596 4.20703125 58.01171875 C-5.02608236 65.42333376 -16.25123695 67.04659383 -27.79296875 66.01171875 C-36.65626224 64.4901233 -44.38053211 60.32614627 -50.10546875 53.32421875 C-56.89242637 43.24776077 -58.61954503 31.92951468 -56.79296875 20.01171875 C-55.34574611 15.56427375 -53.40255962 11.87916997 -50.79296875 8.01171875 C-50.41011719 7.40070313 -50.02726563 6.7896875 -49.6328125 6.16015625 C-38.8655755 -8.89082021 -14.2562775 -10.14887447 0 0 Z " fill="#050505" transform="translate(698.79296875,491.98828125)"/>
<path d="M0 0 C6.6 0 13.2 0 20 0 C20.65226563 1.835625 21.30453125 3.67125 21.9765625 5.5625 C22.62838436 7.39361304 23.28022282 9.2247202 23.93243408 11.05569458 C24.39287364 12.34832983 24.85312049 13.64103375 25.31317139 14.93380737 C28.44501707 23.72988632 31.64882922 32.49105619 35.0390625 41.19140625 C36 44 36 44 36 47 C36.66 47 37.32 47 38 47 C38.14092072 46.41523392 38.28184143 45.83046783 38.42703247 45.22798157 C39.31929626 41.75841797 40.48638551 38.37795062 41.6171875 34.98046875 C41.87501007 34.20367264 42.13283264 33.42687653 42.39846802 32.62654114 C42.94405258 30.98473213 43.49044801 29.34319239 44.03759766 27.7019043 C44.86819096 25.20794498 45.6939791 22.71242871 46.51953125 20.21679688 C47.05178851 18.61708938 47.58433147 17.0174769 48.1171875 15.41796875 C48.36105194 14.67918991 48.60491638 13.94041107 48.85617065 13.179245 C49.21136276 12.11828362 49.21136276 12.11828362 49.57373047 11.03588867 C49.87898148 10.11799812 49.87898148 10.11799812 50.19039917 9.18156433 C51.34324989 6.07507294 52.69474417 3.04559695 54 0 C60.6 0 67.2 0 74 0 C68.60277239 14.52344884 63.11265862 29.00967133 57.55270386 43.47155762 C56.81922914 45.38116505 56.08735132 47.29138674 55.35720825 49.20227051 C51.64830468 58.90360909 47.86198704 68.55887412 43.6953125 78.07421875 C43.37618393 78.81227753 43.05705536 79.5503363 42.72825623 80.3107605 C39.46040979 87.63846948 35.61154816 92.29109556 28.0534668 95.40454102 C24.14829626 96.53695225 20.22026396 96.34919173 16.1875 96.25 C14.90069336 96.24226562 14.90069336 96.24226562 13.58789062 96.234375 C7.31070924 96.15535462 7.31070924 96.15535462 5 95 C5.4452885 89.72684667 6.08373163 84.98229776 8 80 C8.74765625 79.93941406 9.4953125 79.87882813 10.265625 79.81640625 C11.25046875 79.73261719 12.2353125 79.64882813 13.25 79.5625 C14.22453125 79.48128906 15.1990625 79.40007812 16.203125 79.31640625 C18.5869293 79.04673007 20.73676723 78.78878044 23 78 C25.37275411 73.75401896 26.66273967 68.59723873 25.44241333 63.81484985 C24.52132179 61.30131926 23.50479016 58.85127426 22.44140625 56.39453125 C22.05943588 55.47524338 21.67746552 54.55595551 21.28392029 53.60881042 C20.05891866 50.66993998 18.81146727 47.74125454 17.5625 44.8125 C16.7569056 42.89453384 15.95285505 40.97591845 15.15039062 39.05664062 C13.95507062 36.19968927 12.75863408 33.34325923 11.55679321 30.48904419 C8.78848586 23.91239342 6.06820355 17.31808007 3.40234375 10.69921875 C3.05772598 9.85019485 2.71310822 9.00117096 2.35804749 8.12641907 C2.04645187 7.34824326 1.73485626 6.57006744 1.41381836 5.76831055 C1.13952499 5.08608932 0.86523163 4.4038681 0.58262634 3.70097351 C0 2 0 2 0 0 Z " fill="#040404" transform="translate(564,488)"/>
<path d="M0 0 C0.66 0 1.32 0 2 0 C3.49633789 1.6965332 3.49633789 1.6965332 5.22265625 4.05078125 C5.84333984 4.89447266 6.46402344 5.73816406 7.10351562 6.60742188 C7.74998047 7.50009766 8.39644531 8.39277344 9.0625 9.3125 C9.71283203 10.19357422 10.36316406 11.07464844 11.03320312 11.98242188 C15.86444216 18.59332649 15.86444216 18.59332649 17 22 C16.34 22.66 15.68 23.32 15 24 C15.99 25.485 15.99 25.485 17 27 C16.68095892 31.04118705 15.08962517 33.59918978 13 37 C7.24035311 46.86815201 1.8151629 56.88740058 -3.5 67 C-18.45688351 95.45688351 -18.45688351 95.45688351 -21 98 C-23.29151417 98.08790975 -25.58572524 98.10694038 -27.87890625 98.09765625 C-28.90889992 98.09553383 -28.90889992 98.09553383 -29.95970154 98.09336853 C-32.16067801 98.08775479 -34.36155409 98.07520007 -36.5625 98.0625 C-38.05143083 98.05748676 -39.54036324 98.05292355 -41.02929688 98.04882812 C-44.68623075 98.03778093 -48.34310558 98.02050713 -52 98 C-52.12375 97.195625 -52.2475 96.39125 -52.375 95.5625 C-52.58125 94.716875 -52.7875 93.87125 -53 93 C-53.66 92.67 -54.32 92.34 -55 92 C-46.18397152 77.09559127 -37.34924087 62.20360713 -28.42236328 47.36523438 C-26.49871174 44.16641252 -24.5783378 40.96563097 -22.65869141 37.7644043 C-21.68415856 36.1402368 -20.70858583 34.51669277 -19.73193359 32.89379883 C-17.14277202 28.58854537 -14.56859515 24.27522557 -12.01930237 19.94621277 C-10.64665025 17.61719425 -9.26837211 15.29152988 -7.88955688 12.96615601 C-6.88757197 11.2712659 -5.89331823 9.57181301 -4.89916992 7.87231445 C-4.29049072 6.84710693 -3.68181152 5.82189941 -3.0546875 4.765625 C-2.51312012 3.84555664 -1.97155273 2.92548828 -1.41357422 1.97753906 C-0.94709473 1.32495117 -0.48061523 0.67236328 0 0 Z " fill="#123941" transform="translate(277,495)"/>
<path d="M0 0 C6.6 0 13.2 0 20 0 C20 23.76 20 47.52 20 72 C35.18 72 50.36 72 66 72 C66 77.94 66 83.88 66 90 C44.22 90 22.44 90 0 90 C0 60.3 0 30.6 0 0 Z " fill="#050506" transform="translate(499,467)"/>
<path d="M0 0 C3.56287619 1.1876254 3.81662585 1.88373017 5.64453125 5.03125 C6.14927979 5.89177979 6.65402832 6.75230957 7.17407227 7.63891602 C7.71475342 8.58307373 8.25543457 9.52723145 8.8125 10.5 C9.66702759 11.9694104 9.66702759 11.9694104 10.53881836 13.46850586 C15.98800614 22.87911709 21.28846672 32.37410736 26.578125 41.875 C29.78368282 47.62689357 33.03811688 53.34956729 36.3125 59.0625 C37.28259151 60.75778994 38.25264462 62.45310185 39.22265625 64.1484375 C40.61075449 66.57385453 41.99939658 68.9989483 43.39013672 71.42285156 C44.68094552 73.67537568 45.96618656 75.93098365 47.25 78.1875 C47.82488159 79.18632202 47.82488159 79.18632202 48.41137695 80.20532227 C51 84.7716606 51 84.7716606 51 87 C51.66 87.33 52.32 87.66 53 88 C52.67 90.31 52.34 92.62 52 95 C48.97706338 91.66257529 47.56289774 88.77817011 46.17504883 84.52905273 C42.8212591 75.30252296 36.80212958 71.40590336 28.17678833 67.3046875 C27.56157318 67.01851563 26.94635803 66.73234375 26.3125 66.4375 C25.70187714 66.1502002 25.09125427 65.86290039 24.46212769 65.56689453 C16.50894669 61.46405314 16.50894669 61.46405314 8 62 C6.05479818 63.82025455 4.38932279 65.54300363 2.6875 67.5625 C2.23310547 68.08263672 1.77871094 68.60277344 1.31054688 69.13867188 C0.19660757 70.41677066 -0.90314888 71.70720655 -2 73 C-0.6362521 76.16814377 0.78563191 77.89613537 3.51171875 79.98828125 C4.18654297 80.53033203 4.86136719 81.07238281 5.55664062 81.63085938 C6.97879459 82.75320086 8.41122741 83.86263725 9.85351562 84.95898438 C11.80120238 86.54370165 13.46822229 88.00954792 15 90 C15.32382941 95.69014531 12.63167481 100.79642872 10.25 105.875 C9.91484375 106.64585937 9.5796875 107.41671875 9.234375 108.2109375 C8.27157587 110.28241442 7.35104065 112.15756722 6 114 C3.234375 115.0078125 3.234375 115.0078125 1 115 C2.61030508 109.65411411 5.02473171 104.90464744 7.69726562 100.03515625 C9.5098476 96.58007086 9.5098476 96.58007086 9.9296875 92.765625 C8.76172059 90.54746936 7.41762599 89.40309723 5.4375 87.875 C3.49609375 86.3671875 3.49609375 86.3671875 2 85 C2 84.34 2 83.68 2 83 C1.443125 82.773125 0.88625 82.54625 0.3125 82.3125 C-2.63246684 80.64103234 -4.68156544 78.44723648 -7 76 C-5.515 75.505 -5.515 75.505 -4 75 C-3.97309156 72.37493198 -3.95320596 69.75013827 -3.9375 67.125 C-3.92912109 66.37863281 -3.92074219 65.63226563 -3.91210938 64.86328125 C-3.79311916 60.80154422 -3.79311916 60.80154422 -5 57 C-5.33 60.3 -5.66 63.6 -6 67 C-6.99 67 -7.98 67 -9 67 C-9.18175781 66.32453125 -9.36351562 65.6490625 -9.55078125 64.953125 C-9.80214844 64.06109375 -10.05351562 63.1690625 -10.3125 62.25 C-10.55613281 61.36828125 -10.79976563 60.4865625 -11.05078125 59.578125 C-12.02125331 56.94227495 -13.21005644 55.14592674 -15 53 C-15.97582031 53.7940625 -16.95164062 54.588125 -17.95703125 55.40625 C-19.24188132 56.43788145 -20.52705444 57.46911065 -21.8125 58.5 C-22.45509766 59.02464844 -23.09769531 59.54929687 -23.75976562 60.08984375 C-24.38173828 60.58613281 -25.00371094 61.08242188 -25.64453125 61.59375 C-26.21534424 62.05458984 -26.78615723 62.51542969 -27.37426758 62.99023438 C-29 64 -29 64 -32 64 C-18.39211053 40.53901181 -18.39211053 40.53901181 -13.4375 32.625 C-10.28174145 27.56899974 -7.53243394 22.39359728 -5 17 C-6.32 17.99 -7.64 18.98 -9 20 C-9.66 19.67 -10.32 19.34 -11 19 C-7.37 12.73 -3.74 6.46 0 0 Z " fill="#202E31" transform="translate(346,432)"/>
<path d="M0 0 C3.68225597 1.45141101 5.01108946 3.14758571 6.953125 6.55078125 C7.48558838 7.47004395 8.01805176 8.38930664 8.56665039 9.33642578 C9.12215576 10.31853027 9.67766113 11.30063477 10.25 12.3125 C11.41972505 14.33772953 12.59029339 16.36247223 13.76171875 18.38671875 C14.60355713 19.85117432 14.60355713 19.85117432 15.46240234 21.34521484 C17.27530117 24.47532945 19.15085163 27.55428904 21.0625 30.625 C29.04614517 43.50883657 36.7706114 56.55077742 44.4375 69.625 C45.0164502 70.60766846 45.59540039 71.59033691 46.19189453 72.6027832 C46.74603027 73.55113037 47.30016602 74.49947754 47.87109375 75.4765625 C48.59703735 76.715271 48.59703735 76.715271 49.33764648 77.97900391 C51.68810926 82.25050139 53.81961627 86.63923255 56 91 C45.77 91 35.54 91 25 91 C23.35 87.926875 21.7 84.85375 20 81.6875 C15.18243787 72.79150669 10.12628644 64.05901921 4.9375 55.375 C2.28692777 50.91946602 -0.35888704 46.46114753 -3 42 C-3.89936279 40.4830957 -3.89936279 40.4830957 -4.81689453 38.93554688 C-6.44035192 36.17673039 -8.03710611 33.404398 -9.625 30.625 C-10.10461182 29.81724121 -10.58422363 29.00948242 -11.07836914 28.17724609 C-14.10912114 22.78988827 -14.10912114 22.78988827 -13.65625 19.51171875 C-11.13125803 15.68254461 -8.56155571 11.90566817 -5.875 8.1875 C-5.31167969 7.39923828 -4.74835938 6.61097656 -4.16796875 5.79882812 C-2.78322342 3.86253169 -1.39381373 1.92977359 0 0 Z " fill="#B5C9C6" transform="translate(415,503)"/>
<path d="M0 0 C44.88 0 89.76 0 136 0 C124.89129232 13.8858846 103.40469269 21.88887759 86 24 C80.97283586 24.262303 75.96384301 24.33012468 70.93066406 24.31567383 C68.63558341 24.31251457 66.34179734 24.33605257 64.046875 24.36132812 C54.96879842 24.3999624 46.78325558 23.53490453 38 21 C36.99300049 20.7201123 35.98600098 20.44022461 34.94848633 20.15185547 C23.25850793 16.78647853 11.57280967 10.49557254 2 3 C2 2.34 2 1.68 2 1 C1.34 0.67 0.68 0.34 0 0 Z " fill="#CDE6DF" transform="translate(279,598)"/>
<path d="M0 0 C6.27 0 12.54 0 19 0 C19 30.69 19 61.38 19 93 C12.73 93 6.46 93 0 93 C0 62.31 0 31.62 0 0 Z " fill="#020202" transform="translate(764,463)"/>
<path d="M0 0 C5.94 0 11.88 0 18 0 C18 30.69 18 61.38 18 93 C12.06 93 6.12 93 0 93 C0 62.31 0 31.62 0 0 Z " fill="#010101" transform="translate(727,463)"/>
<path d="M0 0 C0.66 0 1.32 0 2 0 C2.35078613 0.63164062 2.70157227 1.26328125 3.06298828 1.9140625 C10.3606309 15.03894484 17.73518702 28.10243774 25.37939453 41.02929688 C28.46449702 46.26825292 31.35576822 51.52450541 34 57 C27.74070593 55.16850238 22.20035346 52.12631701 16.45703125 49.1015625 C15.68488281 48.70453125 14.91273438 48.3075 14.1171875 47.8984375 C13.42222168 47.53411621 12.72725586 47.16979492 12.01123047 46.79443359 C9.74035967 45.75508179 9.74035967 45.75508179 6 46 C4.13097445 47.64069648 4.13097445 47.64069648 2.5 49.8125 C0.19306299 52.69092823 -2.01917025 54.83412047 -5 57 C-5.21436034 48.53168408 -4.55444272 40.28764822 -3.625 31.875 C-3.48924561 30.6063208 -3.35349121 29.3376416 -3.21362305 28.03051758 C-2.20601857 18.67963822 -1.14825954 9.33467462 0 0 Z " fill="#CDE7DE" transform="translate(348,442)"/>
<path d="M0 0 C0.66 0 1.32 0 2 0 C3.49633789 1.6965332 3.49633789 1.6965332 5.22265625 4.05078125 C5.84333984 4.89447266 6.46402344 5.73816406 7.10351562 6.60742188 C8.07321289 7.94643555 8.07321289 7.94643555 9.0625 9.3125 C9.71283203 10.19357422 10.36316406 11.07464844 11.03320312 11.98242188 C15.86444216 18.59332649 15.86444216 18.59332649 17 22 C16.34 22.66 15.68 23.32 15 24 C15.66 24.99 16.32 25.98 17 27 C16.68056876 31.04612901 15.08919551 33.59307797 13 37 C11.63999594 39.35105653 10.28529392 41.70448577 8.9375 44.0625 C8.58623047 44.67416016 8.23496094 45.28582031 7.87304688 45.91601562 C6.16330003 48.90564858 4.49390681 51.89607963 3 55 C1.68 54.67 0.36 54.34 -1 54 C-1 48.39 -1 42.78 -1 37 C-1.66 37 -2.32 37 -3 37 C-3.33 39.97 -3.66 42.94 -4 46 C-4.66 46 -5.32 46 -6 46 C-7.32 43.03 -8.64 40.06 -10 37 C-11.32 37.66 -12.64 38.32 -14 39 C-15.3242287 39.36784131 -16.65613912 39.71202981 -18 40 C-16.65267048 36.3799884 -15.02618842 33.20126184 -12.99609375 29.91796875 C-12.42052734 28.98662109 -11.84496094 28.05527344 -11.25195312 27.09570312 C-10.65318359 26.13599609 -10.05441406 25.17628906 -9.4375 24.1875 C-8.83486328 23.20845703 -8.23222656 22.22941406 -7.61132812 21.22070312 C-4.27994587 15.85534563 -4.27994587 15.85534563 -3 14 C-2.67 14 -2.34 14 -2 14 C-1.67 15.65 -1.34 17.3 -1 19 C-0.34 19 0.32 19 1 19 C0.67 16.03 0.34 13.06 0 10 C-0.99 10.495 -0.99 10.495 -2 11 C-1.34 9.35 -0.68 7.7 0 6 C-0.99 5.67 -1.98 5.34 -3 5 C-1.625 2.5 -1.625 2.5 0 0 Z " fill="#222B2E" transform="translate(277,495)"/>
<path d="M0 0 C0.33 0 0.66 0 1 0 C0.56576512 10.31682187 -0.51023976 20.4383677 -1.90673828 30.66650391 C-2.86833904 37.77186364 -3.6013484 44.83801777 -4 52 C-7.05383204 50.47308398 -7.38086503 48.04783744 -8.625 44.9375 C-9.07101562 43.83277344 -9.51703125 42.72804688 -9.9765625 41.58984375 C-10.31429688 40.73519531 -10.65203125 39.88054687 -11 39 C-16.70985379 42.65119902 -21.94464135 46.48244546 -27 51 C-27.66 50.67 -28.32 50.34 -29 50 C-26.83607487 46.26923616 -24.6688439 42.54040647 -22.5 38.8125 C-21.85869141 37.7100293 -21.21738281 36.60755859 -20.55664062 35.47167969 C-17.27682557 29.84890272 -13.96269076 24.26190033 -10.5 18.75 C-7.36836837 13.73938938 -4.68666251 8.59021842 -2.12890625 3.265625 C-1 1 -1 1 0 0 Z " fill="#24717D" transform="translate(343,446)"/>
<path d="M0 0 C0.72657136 2.26044425 1.14197838 3.56310814 0.39575195 5.859375 C-0.1408465 8.76183969 0.67898528 9.94367345 2.10546875 12.5 C2.82935791 13.8144812 2.82935791 13.8144812 3.56787109 15.15551758 C4.10234863 16.09419678 4.63682617 17.03287598 5.1875 18 C5.73486816 18.98186279 6.28223633 19.96372559 6.84619141 20.9753418 C10.86721845 28.13797619 15.06190853 35.19031922 19.33203125 42.20654297 C26.21453322 53.55951824 33.06066843 65.12133685 39 77 C49.23 77.33 59.46 77.66 70 78 C70.495 76.02 70.495 76.02 71 74 C71.66 74 72.32 74 73 74 C73.66 75.98 74.32 77.96 75 80 C55.86 80 36.72 80 17 80 C17 79.67 17 79.34 17 79 C21.14109254 78.27980999 25.05007841 77.94102193 29.2578125 77.96875 C30.14871582 77.97326172 31.03961914 77.97777344 31.95751953 77.98242188 C32.96854736 77.99112305 32.96854736 77.99112305 34 78 C28.20697822 67.29745512 22.28204788 56.68529667 16.125 46.1875 C13.74827258 42.12600795 11.37306831 38.06363116 9 34 C8.38141113 32.94087402 7.76282227 31.88174805 7.12548828 30.79052734 C5.30255611 27.6578234 3.49327756 24.51761679 1.6875 21.375 C1.1301416 20.42133545 0.5727832 19.4676709 -0.00146484 18.48510742 C-5.01454025 9.71104053 -5.01454025 9.71104053 -5 5 C-2.5625 2.125 -2.5625 2.125 0 0 Z " fill="#1F2C30" transform="translate(402,517)"/>
<path d="M0 0 C0.99 0 1.98 0 3 0 C3 0.99 3 1.98 3 3 C3.33 3 3.66 3 4 3 C4 6.3 4 9.6 4 13 C3.01 13.33 2.02 13.66 1 14 C0.505 11.525 0.505 11.525 0 9 C-0.34780518 9.57967529 -0.69561035 10.15935059 -1.05395508 10.7565918 C-8.02697754 22.3782959 -8.02697754 22.3782959 -15 34 C-14.071875 33.319375 -13.14375 32.63875 -12.1875 31.9375 C-11.135625 31.298125 -10.08375 30.65875 -9 30 C-8.01 30.33 -7.02 30.66 -6 31 C-5.05078125 33.06640625 -5.05078125 33.06640625 -4.3125 35.5625 C-4.06113281 36.38878906 -3.80976563 37.21507812 -3.55078125 38.06640625 C-3.36902344 38.70449219 -3.18726563 39.34257813 -3 40 C-2.34 40 -1.68 40 -1 40 C-0.67 37.03 -0.34 34.06 0 31 C0.66 31 1.32 31 2 31 C2.02721176 32.89575251 2.04649136 34.79161979 2.0625 36.6875 C2.07410156 37.74324219 2.08570313 38.79898438 2.09765625 39.88671875 C2.00865425 42.72410262 1.64939838 45.2438919 1 48 C0.01 48 -0.98 48 -2 48 C-3.60546875 45.953125 -3.60546875 45.953125 -5.1875 43.25 C-5.71730469 42.36828125 -6.24710937 41.4865625 -6.79296875 40.578125 C-8 38 -8 38 -8 34 C-8.556875 34.45375 -9.11375 34.9075 -9.6875 35.375 C-12 37 -12 37 -14.625 37.875 C-17.24617655 38.81763879 -17.24617655 38.81763879 -18.3125 41.625 C-18.539375 42.40875 -18.76625 43.1925 -19 44 C-19.99 44 -20.98 44 -22 44 C-22.27070313 44.71542969 -22.54140625 45.43085937 -22.8203125 46.16796875 C-24.00616017 49.01478848 -25.34450256 51.63611199 -26.875 54.3125 C-27.36742187 55.19550781 -27.85984375 56.07851563 -28.3671875 56.98828125 C-28.90601563 57.65214844 -29.44484375 58.31601562 -30 59 C-31.32 59 -32.64 59 -34 59 C-33.50849386 53.65754195 -30.63495489 49.69698501 -27.875 45.25 C-26.78600741 43.46772336 -25.69748889 41.68515699 -24.609375 39.90234375 C-24.02736328 38.95343262 -23.44535156 38.00452148 -22.84570312 37.02685547 C-20.90414031 33.84279517 -18.98805354 30.64453517 -17.078125 27.44140625 C-16.42086426 26.33958008 -15.76360352 25.23775391 -15.08642578 24.10253906 C-13.80785178 21.95789589 -12.53014021 19.81273825 -11.25341797 17.66699219 C-9.51885143 14.76746022 -7.76721497 11.87973631 -6 9 C-5.17193848 7.64527588 -5.17193848 7.64527588 -4.32714844 6.26318359 C-3.80411133 5.4377002 -3.28107422 4.6122168 -2.7421875 3.76171875 C-2.28440918 3.03299561 -1.82663086 2.30427246 -1.35498047 1.5534668 C-0.90783691 1.04082275 -0.46069336 0.52817871 0 0 Z " fill="#1F2A2E" transform="translate(274,501)"/>
<path d="M0 0 C4.41108766 2.15780479 6.27766144 5.20648164 8.23828125 9.48046875 C8.8671875 11.3828125 8.8671875 11.3828125 8.8671875 14.3828125 C-2.0228125 14.3828125 -12.9128125 14.3828125 -24.1328125 14.3828125 C-23.00096141 7.59170599 -23.00096141 7.59170599 -20.3203125 4.6328125 C-19.81886719 4.06046875 -19.31742188 3.488125 -18.80078125 2.8984375 C-13.62899238 -1.80098658 -6.5189447 -1.88643455 0 0 Z " fill="#F6F7F6" transform="translate(685.1328125,501.6171875)"/>
<path d="M0 0 C3.7520541 3.63014621 7.13638119 7.40661376 10.375 11.5 C10.83777344 12.05558594 11.30054688 12.61117187 11.77734375 13.18359375 C13.8546688 15.81900613 15.01965658 17.36384146 14.9140625 20.78125 C14 23 14 23 12 25 C8.9609375 25.1953125 8.9609375 25.1953125 5.375 25.125 C4.18648438 25.10695313 2.99796875 25.08890625 1.7734375 25.0703125 C0.85820312 25.04710937 -0.05703125 25.02390625 -1 25 C-1.11039334 16.59784035 -0.95458649 8.35263176 0 0 Z " fill="#CCE7DE" transform="translate(279,504)"/>
<path d="M0 0 C28.71 0 57.42 0 87 0 C87 0.33 87 0.66 87 1 C83.7 1.33 80.4 1.66 77 2 C94.16 2 111.32 2 129 2 C129 2.66 129 3.32 129 4 C103.26 4 77.52 4 51 4 C50.505 3.01 50.505 3.01 50 2 C49.43259094 2.00444122 48.86518188 2.00888245 48.28057861 2.01345825 C42.3758801 2.05769954 36.47122868 2.08786975 30.56640625 2.10986328 C28.36261075 2.11992183 26.1588286 2.13357026 23.95507812 2.15087891 C20.78772691 2.1751334 17.62055213 2.1864846 14.453125 2.1953125 C13.46757629 2.20563507 12.48202759 2.21595764 11.46661377 2.22659302 C10.5459613 2.22674408 9.62530884 2.22689514 8.67675781 2.22705078 C7.46430389 2.23371262 7.46430389 2.23371262 6.22735596 2.24050903 C4 2 4 2 0 0 Z " fill="#28373A" transform="translate(349,594)"/>
<path d="M0 0 C0.33 0 0.66 0 1 0 C1 1.65 1 3.3 1 5 C5.62 4.67 10.24 4.34 15 4 C12.8044997 8.39100061 10.37504911 12.61857437 7.921875 16.8671875 C6.1934258 19.87262529 4.50068586 22.87357114 3 26 C1.68 25.67 0.36 25.34 -1 25 C-1.0271045 21.95827281 -1.04688964 18.91679003 -1.0625 15.875 C-1.07087891 15.0190625 -1.07925781 14.163125 -1.08789062 13.28125 C-1.10538306 8.73321589 -0.93192358 4.47616836 0 0 Z " fill="#47575A" transform="translate(277,524)"/>
<path d="M0 0 C3.66843902 3.17748458 4.96943587 6.20820086 6.75390625 10.66796875 C8.95371338 14.86610535 9.91259204 16.63916365 14.46826172 18.15087891 C18.62996036 18.66196926 22.75915267 18.49674877 26.9375 18.3125 C28.39903145 18.29548849 29.86064397 18.2843657 31.32226562 18.27929688 C34.88499629 18.25420196 38.44005142 18.14905954 42 18 C42.33 16.68 42.66 15.36 43 14 C43.66 14 44.32 14 45 14 C45.66 15.98 46.32 17.96 47 20 C27.86 20 8.72 20 -11 20 C-11 19.67 -11 19.34 -11 19 C-5.29309366 18.00749455 0.21408489 17.89522488 6 18 C5.566875 17.28714844 5.13375 16.57429687 4.6875 15.83984375 C-0.84358524 6.32688928 -0.84358524 6.32688928 0 0 Z " fill="#1A2527" transform="translate(430,577)"/>
<path d="M0 0 C0.66 0 1.32 0 2 0 C2.12276617 9.73944972 1.83779436 19.29056184 1 29 C0.34 29 -0.32 29 -1 29 C-2.32 26.03 -3.64 23.06 -5 20 C-6.98 20.99 -6.98 20.99 -9 22 C-10.3242287 22.36784131 -11.65613912 22.71202981 -13 23 C-11.04977866 17.84899485 -8.36280172 13.37376586 -5.5 8.6875 C-5.00113281 7.85154297 -4.50226563 7.01558594 -3.98828125 6.15429688 C-3.50746094 5.36474609 -3.02664063 4.57519531 -2.53125 3.76171875 C-2.09361328 3.03944092 -1.65597656 2.31716309 -1.20507812 1.57299805 C-0.80740234 1.05390869 -0.40972656 0.53481934 0 0 Z " fill="#2B7D88" transform="translate(272,512)"/>
<path d="M0 0 C4.56454251 0.54339792 7.9728176 1.79463821 12 4 C11.01 5.32 10.02 6.64 9 8 C8.443125 7.649375 7.88625 7.29875 7.3125 6.9375 C4.29045272 5.7123457 3.09042085 5.96385307 0 7 C-2.70060106 9.43361404 -2.70060106 9.43361404 -5.1875 12.4375 C-6.47720703 13.92056641 -6.47720703 13.92056641 -7.79296875 15.43359375 C-8.52128906 16.28050781 -9.24960937 17.12742187 -10 18 C-10.66 18.66 -11.32 19.32 -12 20 C-12 16.04 -12 12.08 -12 8 C-11.01 9.485 -11.01 9.485 -10 11 C-8.70522938 9.73232923 -7.41429661 8.46073776 -6.125 7.1875 C-5.40570313 6.47980469 -4.68640625 5.77210938 -3.9453125 5.04296875 C-1.84641063 2.95600806 -1.84641063 2.95600806 0 0 Z " fill="#2B393B" transform="translate(354,487)"/>
<path d="M0 0 C0.99 0.33 1.98 0.66 3 1 C3.94921875 3.06640625 3.94921875 3.06640625 4.6875 5.5625 C5.06455078 6.80193359 5.06455078 6.80193359 5.44921875 8.06640625 C5.63097656 8.70449219 5.81273437 9.34257813 6 10 C6.66 10 7.32 10 8 10 C8.33 7.03 8.66 4.06 9 1 C9.66 1 10.32 1 11 1 C11.02721176 2.89575251 11.04649136 4.79161979 11.0625 6.6875 C11.07410156 7.74324219 11.08570313 8.79898438 11.09765625 9.88671875 C11.00865425 12.72410262 10.64939838 15.2438919 10 18 C9.01 18 8.02 18 7 18 C5.39453125 15.953125 5.39453125 15.953125 3.8125 13.25 C3.28269531 12.36828125 2.75289063 11.4865625 2.20703125 10.578125 C1 8 1 8 1 4 C0.38125 4.495 -0.2375 4.99 -0.875 5.5 C-3 7 -3 7 -5 7 C-5 6.34 -5 5.68 -5 5 C-5.66 5 -6.32 5 -7 5 C-5.60683123 2.21366246 -3.84019484 2.06507306 -1 1 C-0.67 0.67 -0.34 0.34 0 0 Z " fill="#1D2B2E" transform="translate(265,531)"/>
<path d="M0 0 C0.66 0 1.32 0 2 0 C2 2.64 2 5.28 2 8 C1.01 8.33 0.02 8.66 -1 9 C-1.68939809 11.32671854 -2.35466922 13.66067594 -3 16 C-4.5625 17.6875 -4.5625 17.6875 -6 19 C-6.71447643 21.10332891 -6.71447643 21.10332891 -7 23 C-7.99 23 -8.98 23 -10 23 C-10.66 24.32 -11.32 25.64 -12 27 C-13 24 -13 24 -12.1875 22.1875 C-11.795625 21.465625 -11.40375 20.74375 -11 20 C-10.73832031 19.11699219 -10.47664062 18.23398437 -10.20703125 17.32421875 C-8.77046622 13.36785358 -6.79240968 10.13319245 -4.5 6.625 C-4.09652344 5.98433594 -3.69304687 5.34367188 -3.27734375 4.68359375 C-2.2433319 3.08309356 -1.12773229 1.53590405 0 0 Z " fill="#1A2629" transform="translate(238,561)"/>
<path d="M0 0 C0.99 0.99 1.98 1.98 3 3 C2.01 3.99 1.02 4.98 0 6 C0.33 6.66 0.66 7.32 1 8 C0.26394531 8.69480469 -0.47210938 9.38960938 -1.23046875 10.10546875 C-4.03312783 12.90812783 -6.1544859 15.98403757 -8.3125 19.3125 C-9.00988281 20.38113281 -9.70726562 21.44976563 -10.42578125 22.55078125 C-10.94527344 23.35902344 -11.46476562 24.16726563 -12 25 C-12.66 24.34 -13.32 23.68 -14 23 C-14.99 23 -15.98 23 -17 23 C-14.91881372 20.10261815 -12.83466861 17.20737707 -10.75 14.3125 C-9.87021484 13.08756836 -9.87021484 13.08756836 -8.97265625 11.83789062 C-6.0717926 7.81253489 -3.15414706 3.8333817 0 0 Z " fill="#263133" transform="translate(416,495)"/>
<path d="M0 0 C0.33 0 0.66 0 1 0 C0.88481642 2.66740923 0.75810454 5.33347241 0.625 8 C0.5940625 8.74378906 0.563125 9.48757813 0.53125 10.25390625 C0.26246207 15.40567483 -0.61063884 20.02992756 -2 25 C-2.66 25 -3.32 25 -4 25 C-4.33 25.99 -4.66 26.98 -5 28 C-5 19.75 -5 11.5 -5 3 C-4.34 2.67 -3.68 2.34 -3 2 C-2.67 3.65 -2.34 5.3 -2 7 C-1.34 7 -0.68 7 0 7 C0 4.69 0 2.38 0 0 Z " fill="#213036" transform="translate(278,507)"/>
<path d="M0 0 C2 2 2 2 2.265625 3.92578125 C2.21879121 11.07964252 1.23579255 17.96039599 0 25 C-0.99 25.33 -1.98 25.66 -3 26 C-3.6728972 7.34579439 -3.6728972 7.34579439 0 0 Z " fill="#1E272B" transform="translate(345,447)"/>
<path d="M0 0 C0.66 0 1.32 0 2 0 C2.89429374 1.5725165 3.76487427 3.15853741 4.625 4.75 C5.35589844 6.07257812 5.35589844 6.07257812 6.1015625 7.421875 C6.54628906 8.69804688 6.54628906 8.69804688 7 10 C6.34 11.32 5.68 12.64 5 14 C-5.23 14 -15.46 14 -26 14 C-26 13.67 -26 13.34 -26 13 C-16.43 12.67 -6.86 12.34 3 12 C1.02 8.535 1.02 8.535 -1 5 C-0.75 2.0625 -0.75 2.0625 0 0 Z " fill="#2A3437" transform="translate(467,581)"/>
<path d="M0 0 C0.99 0 1.98 0 3 0 C3 0.99 3 1.98 3 3 C3.33 3 3.66 3 4 3 C4 6.3 4 9.6 4 13 C3.01 13.33 2.02 13.66 1 14 C0.67 12.35 0.34 10.7 0 9 C-0.66 10.32 -1.32 11.64 -2 13 C-3.32 12.67 -4.64 12.34 -6 12 C-5.56629155 7.2292071 -3.35665609 3.36635741 0 0 Z " fill="#1B2428" transform="translate(274,501)"/>
<path d="M0 0 C0.66 0 1.32 0 2 0 C2.66 1.98 3.32 3.96 4 6 C-8.54 6 -21.08 6 -34 6 C-34 5.67 -34 5.34 -34 5 C-26.60072623 4.0902196 -19.32476219 3.87589255 -11.875 3.9375 C-10.2971875 3.94426758 -10.2971875 3.94426758 -8.6875 3.95117188 C-6.12493779 3.96281989 -3.56250123 3.97917447 -1 4 C-0.67 2.68 -0.34 1.36 0 0 Z " fill="#141B1D" transform="translate(473,591)"/>
<path d="M0 0 C-1.55033419 5.89126992 -4.54911639 11.02060001 -8 16 C-8.66 16.33 -9.32 16.66 -10 17 C-11.1640625 15.31640625 -11.1640625 15.31640625 -12 13 C-11.0234375 10.52734375 -11.0234375 10.52734375 -9.375 7.9375 C-8.84648437 7.08027344 -8.31796875 6.22304688 -7.7734375 5.33984375 C-5.65117604 2.53976751 -3.69267608 0 0 0 Z " fill="#1A2428" transform="translate(341,449)"/>
<path d="M0 0 C0.33 0.66 0.66 1.32 1 2 C-0.4375 4.625 -0.4375 4.625 -2 7 C-1.34 7 -0.68 7 0 7 C0 7.66 0 8.32 0 9 C-0.639375 9.474375 -1.27875 9.94875 -1.9375 10.4375 C-4.28372963 11.9091365 -4.28372963 11.9091365 -5 15 C-5.66 15 -6.32 15 -7 15 C-7 14.34 -7 13.68 -7 13 C-7.99 13.33 -8.98 13.66 -10 14 C-9.36894662 10.90714499 -8.33730712 8.56168281 -6.6875 5.875 C-6.27886719 5.19179688 -5.87023437 4.50859375 -5.44921875 3.8046875 C-3.8181916 1.77359709 -2.38538425 0.98670479 0 0 Z " fill="#161F23" transform="translate(260,529)"/>
<path d="M0 0 C0.66 0 1.32 0 2 0 C3.125 5.75 3.125 5.75 2 8 C9.26 8 16.52 8 24 8 C24 8.33 24 8.66 24 9 C14.43 9 4.86 9 -5 9 C-1 1 -1 1 0 0 Z " fill="#151E21" transform="translate(222,588)"/>
<path d="M0 0 C2.7578125 0.08984375 2.7578125 0.08984375 6 1 C7.6223956 3.2539924 8.7293807 5.09160747 9.875 7.5625 C10.18179687 8.17802734 10.48859375 8.79355469 10.8046875 9.42773438 C11.55607425 10.94224829 12.28073653 12.46996912 13 14 C11.02 14.99 11.02 14.99 9 16 C7.49734474 13.5224077 5.99777081 11.04304235 4.5 8.5625 C4.07074219 7.85544922 3.64148438 7.14839844 3.19921875 6.41992188 C0 1.11328125 0 1.11328125 0 0 Z " fill="#262C32" transform="translate(442,544)"/>
<path d="M0 0 C4.14298667 0.59834725 7.18194377 2.00664285 10.8125 4.0625 C11.78832031 4.61035156 12.76414062 5.15820312 13.76953125 5.72265625 C14.50558594 6.14417969 15.24164063 6.56570313 16 7 C16 7.66 16 8.32 16 9 C9.21017493 8.62964591 4.73115109 6.59523599 -1 3 C-0.67 2.01 -0.34 1.02 0 0 Z " fill="#1C282A" transform="translate(365,492)"/>
<path d="M0 0 C3.84516615 3.54938414 7.15122083 7.61288008 10 12 C10 12.66 10 13.32 10 14 C8.68 14.33 7.36 14.66 6 15 C-1.01969365 7.12253829 -1.01969365 7.12253829 -0.9375 2.4375 C-0.628125 1.633125 -0.31875 0.82875 0 0 Z " fill="#2C383C" transform="translate(284,503)"/>
<path d="M0 0 C2.4932534 0.99730136 3.77467439 1.65074531 5.25 3.9375 C6 6 6 6 6 9 C2.7 8.67 -0.6 8.34 -4 8 C-3.07377893 4.29511572 -2.32789515 2.83395931 0 0 Z " fill="#BED2CC" transform="translate(415,503)"/>
<path d="M0 0 C3.64757321 1.43715947 4.97325575 3.07711644 6.8125 6.5 C7.25207031 7.2940625 7.69164062 8.088125 8.14453125 8.90625 C8.56798828 9.94265625 8.56798828 9.94265625 9 11 C8.67 11.66 8.34 12.32 8 13 C3.31871657 10.29525846 0.85965785 8.14140699 -1 3 C-0.67 2.01 -0.34 1.02 0 0 Z " fill="#1E2528" transform="translate(438,533)"/>
<path d="M0 0 C0.66 0 1.32 0 2 0 C2 2.64 2 5.28 2 8 C1.01 8.33 0.02 8.66 -1 9 C-2.20882096 11.00016466 -2.20882096 11.00016466 -3 13 C-3.66 12.34 -4.32 11.68 -5 11 C-4.75082658 6.51487836 -2.68797785 3.5025166 0 0 Z " fill="#141E20" transform="translate(238,561)"/>
<path d="M0 0 C3.04049801 3.64859761 4.96518762 7.7444533 7 12 C5.02 12.99 5.02 12.99 3 14 C2.10570626 12.4274835 1.23512573 10.84146259 0.375 9.25 C-0.11226563 8.36828125 -0.59953125 7.4865625 -1.1015625 6.578125 C-2 4 -2 4 -1.1484375 1.671875 C-0.76945312 1.12015625 -0.39046875 0.5684375 0 0 Z " fill="#283236" transform="translate(368,467)"/>
<path d="M0 0 C2.74277578 3.19990508 4.6302836 6.00499382 6 10 C4.02 10.99 4.02 10.99 2 12 C0.35 8.7 -1.3 5.4 -3 2 C-2.01 1.34 -1.02 0.68 0 0 Z " fill="#2B3738" transform="translate(353,441)"/>
<path d="M0 0 C1.670625 0.2475 1.670625 0.2475 3.375 0.5 C6.72032033 1.0455458 6.72032033 1.0455458 9 1 C9 3.97 9 6.94 9 10 C8.67 10 8.34 10 8 10 C7.67 8.35 7.34 6.7 7 5 C6.34 5 5.68 5 5 5 C4.67 4.34 4.34 3.68 4 3 C3.67 3.66 3.34 4.32 3 5 C0.5625 6.6875 0.5625 6.6875 -2 8 C-2.66 7.67 -3.32 7.34 -4 7 C-2.68 4.69 -1.36 2.38 0 0 Z " fill="#2C393C" transform="translate(339,444)"/>
<path d="M0 0 C4.97631579 4.81578947 4.97631579 4.81578947 5.0625 9.125 C5.041875 10.07375 5.02125 11.0225 5 12 C4.34 12 3.68 12 3 12 C2.16151196 10.54462432 1.32936066 9.08559627 0.5 7.625 C-0.19609375 6.40683594 -0.19609375 6.40683594 -0.90625 5.1640625 C-2 3 -2 3 -2 1 C-1.34 0.67 -0.68 0.34 0 0 Z " fill="#1A2024" transform="translate(454,558)"/>
<path d="M0 0 C0.66 0.33 1.32 0.66 2 1 C-0.33333333 5.66666667 -2.66666667 10.33333333 -5 15 C-5.66 13.68 -6.32 12.36 -7 11 C-6.34 10.01 -5.68 9.02 -5 8 C-5 7.34 -5 6.68 -5 6 C-4.34 6 -3.68 6 -3 6 C-2.814375 4.7934375 -2.814375 4.7934375 -2.625 3.5625 C-2.41875 2.716875 -2.2125 1.87125 -2 1 C-1.34 0.67 -0.68 0.34 0 0 Z " fill="#162223" transform="translate(300,517)"/>
<path d="M0 0 C0.33 0 0.66 0 1 0 C1 1.65 1 3.3 1 5 C5.29 5 9.58 5 14 5 C14 5.33 14 5.66 14 6 C11.03 6 8.06 6 5 6 C4.67 7.32 4.34 8.64 4 10 C2.68 10 1.36 10 0 10 C0 6.7 0 3.4 0 0 Z " fill="#7C8E8C" transform="translate(277,524)"/>
<path d="M0 0 C0.33 0 0.66 0 1 0 C1.33 2.64 1.66 5.28 2 8 C-3.75 12 -3.75 12 -6 12 C-4.43358249 7.69235185 -2.31663844 3.93828536 0 0 Z " fill="#226672" transform="translate(265,523)"/>
<path d="M0 0 C1.45606519 4.52092968 0.27032841 7.51648796 -1 12 C-1.99 11.67 -2.98 11.34 -4 11 C-4.8125 8.3125 -4.8125 8.3125 -5 5 C-2.5625 2.125 -2.5625 2.125 0 0 Z " fill="#192123" transform="translate(402,517)"/>
<path d="M0 0 C2.52349243 3.12432397 4.27256146 6.38060496 6 10 C2.08788267 8.84414715 -0.8745041 7.64465038 -4 5 C-3.34 5 -2.68 5 -2 5 C-1.34 3.35 -0.68 1.7 0 0 Z " fill="#B3CFC9" transform="translate(376,489)"/>
<path d="M0 0 C0.33 0 0.66 0 1 0 C0.67 5.61 0.34 11.22 0 17 C-0.33 17 -0.66 17 -1 17 C-1.12375 16.236875 -1.2475 15.47375 -1.375 14.6875 C-1.88102792 11.79732864 -1.88102792 11.79732864 -4 9 C-4.39013716 7.0103005 -4.73202649 5.00980131 -5 3 C-4.34 2.67 -3.68 2.34 -3 2 C-2.67 3.65 -2.34 5.3 -2 7 C-1.34 7 -0.68 7 0 7 C0 4.69 0 2.38 0 0 Z " fill="#3B4F53" transform="translate(278,507)"/>
<path d="M0 0 C0.66 0 1.32 0 2 0 C2 4.95 2 9.9 2 15 C1.67 15 1.34 15 1 15 C1 11.7 1 8.4 1 5 C0.34 5 -0.32 5 -1 5 C-1.28875 5.639375 -1.5775 6.27875 -1.875 6.9375 C-3 9 -3 9 -5 10 C-3.66749209 6.4124787 -2.169283 3.1635377 0 0 Z " fill="#256D76" transform="translate(272,512)"/>
<path d="M0 0 C1.5 1.125 1.5 1.125 3 3 C3.3125 6.0625 3.3125 6.0625 3 9 C2.34 9.66 1.68 10.32 1 11 C0.01 8.03 -0.98 5.06 -2 2 C-1.34 1.34 -0.68 0.68 0 0 Z " fill="#DAEBE5" transform="translate(241,543)"/>
<path d="M0 0 C0.33 0.99 0.66 1.98 1 3 C1.99 3.33 2.98 3.66 4 4 C1.36 6.31 -1.28 8.62 -4 11 C-4.66 10.67 -5.32 10.34 -6 10 C-4.02 6.7 -2.04 3.4 0 0 Z " fill="#23626D" transform="translate(320,486)"/>
<path d="M0 0 C0.66 0 1.32 0 2 0 C2.6875 3.3125 2.6875 3.3125 3 7 C1.51953125 8.73046875 1.51953125 8.73046875 0 10 C-0.19412181 8.52168779 -0.38012131 7.04230684 -0.5625 5.5625 C-0.66691406 4.73878906 -0.77132813 3.91507813 -0.87890625 3.06640625 C-0.91886719 2.38449219 -0.95882813 1.70257812 -1 1 C-0.67 0.67 -0.34 0.34 0 0 Z " fill="#BCCFCA" transform="translate(425,518)"/>
<path d="M0 0 C0.6875 1.6875 0.6875 1.6875 1 4 C-0.4375 6.75 -0.4375 6.75 -2 9 C-3.32 8.67 -4.64 8.34 -6 8 C-4.73058503 4.08597051 -3.48832306 2.20927127 0 0 Z " fill="#161F21" transform="translate(319,484)"/>
<path d="M0 0 C3 3.46153846 3 3.46153846 3 6 C1.68 6.33 0.36 6.66 -1 7 C-4 3.25 -4 3.25 -4 1 C-2 0 -2 0 0 0 Z " fill="#273235" transform="translate(291,511)"/>
<path d="M0 0 C5.75 0.75 5.75 0.75 8 3 C7.01 3.99 6.02 4.98 5 6 C2.5 4.6875 2.5 4.6875 0 3 C0 2.01 0 1.02 0 0 Z " fill="#273435" transform="translate(358,489)"/>
<path d="M0 0 C0.66 0 1.32 0 2 0 C3.61949011 2.57213134 4.04408751 3.67669159 3.625 6.75 C3.41875 7.4925 3.2125 8.235 3 9 C0.9375 7.3125 0.9375 7.3125 -1 5 C-0.75 2.25 -0.75 2.25 0 0 Z " fill="#1A2426" transform="translate(416,553)"/>
<path d="M0 0 C0.33 0.99 0.66 1.98 1 3 C1.99 3.33 2.98 3.66 4 4 C4.6875 6.0625 4.6875 6.0625 5 8 C4.34 8 3.68 8 3 8 C2.67 8.66 2.34 9.32 2 10 C-1.07692308 4.58461538 -1.07692308 4.58461538 -0.6875 1.625 C-0.460625 1.08875 -0.23375 0.5525 0 0 Z " fill="#ABBEBB" transform="translate(402,521)"/>
<path d="M0 0 C0.66 0.33 1.32 0.66 2 1 C1.67 1.928125 1.34 2.85625 1 3.8125 C-0.14967004 6.92029291 -0.14967004 6.92029291 0 10 C-0.99 10.495 -0.99 10.495 -2 11 C-2 10.01 -2 9.02 -2 8 C-2.66 7.67 -3.32 7.34 -4 7 C-2.68 4.69 -1.36 2.38 0 0 Z " fill="#263436" transform="translate(226,580)"/>
<path d="M0 0 C0.66 0.99 1.32 1.98 2 3 C0.515 5.475 0.515 5.475 -1 8 C-1.99 7.01 -2.98 6.02 -4 5 C-2.68 3.35 -1.36 1.7 0 0 Z " fill="#C2DFD8" transform="translate(334,448)"/>
<path d="M0 0 C2.97 0.495 2.97 0.495 6 1 C6.33 1.99 6.66 2.98 7 4 C6.34 4 5.68 4 5 4 C4.67 5.32 4.34 6.64 4 8 C2.68 5.36 1.36 2.72 0 0 Z " fill="#2D3439" transform="translate(442,544)"/>
<path d="M0 0 C3 1 3 1 4.6875 4.0625 C5.120625 5.031875 5.55375 6.00125 6 7 C5.34 7 4.68 7 4 7 C3.67 6.34 3.34 5.68 3 5 C1.35 5 -0.3 5 -2 5 C-1.34 3.35 -0.68 1.7 0 0 Z " fill="#243032" transform="translate(346,432)"/>
<path d="M0 0 C1.89213369 2.38573379 3.02391783 4.07175348 4 7 C2.68 7.33 1.36 7.66 0 8 C-0.79953138 4.71303767 -1.09658936 3.28976808 0 0 Z " fill="#2A3A3B" transform="translate(389,504)"/>
<path d="M0 0 C0.33 0 0.66 0 1 0 C1 1.98 1 3.96 1 6 C1.99 6 2.98 6 4 6 C2.25 9.875 2.25 9.875 0 11 C0 7.37 0 3.74 0 0 Z " fill="#C6E0D8" transform="translate(343,488)"/>
<path d="M0 0 C2.00720923 0.28674418 4.0085944 0.61866701 6 1 C5.01 1.495 5.01 1.495 4 2 C4 2.99 4 3.98 4 5 C3.01 5 2.02 5 1 5 C1 4.01 1 3.02 1 2 C0.34 1.67 -0.32 1.34 -1 1 C-0.67 0.67 -0.34 0.34 0 0 Z " fill="#333E3F" transform="translate(354,487)"/>
<path d="M0 0 C0 0.66 0 1.32 0 2 C-4.95 1.67 -9.9 1.34 -15 1 C-15 0.67 -15 0.34 -15 0 C-13.25093341 -0.19601608 -11.50068154 -0.38147403 -9.75 -0.5625 C-8.77546875 -0.66691406 -7.8009375 -0.77132813 -6.796875 -0.87890625 C-4.2368648 -0.98974468 -2.41851841 -0.77738092 0 0 Z " fill="#E4E5E5" transform="translate(688,485)"/>
<path d="M0 0 C1.5625 1.1875 1.5625 1.1875 3 3 C2.6875 5.6875 2.6875 5.6875 2 8 C0.4375 6.8125 0.4375 6.8125 -1 5 C-0.6875 2.3125 -0.6875 2.3125 0 0 Z " fill="#1D2629" transform="translate(365,463)"/>
<path d="M0 0 C1.65 1.65 3.3 3.3 5 5 C4.67 5.66 4.34 6.32 4 7 C2.68 6.67 1.36 6.34 0 6 C0 4.02 0 2.04 0 0 Z " fill="#264C54" transform="translate(276,543)"/>
<path d="M0 0 C0.66 0.33 1.32 0.66 2 1 C1.67 2.65 1.34 4.3 1 6 C0.34 6 -0.32 6 -1 6 C-1 5.34 -1 4.68 -1 4 C-1.99 4.33 -2.98 4.66 -4 5 C-4 4.34 -4 3.68 -4 3 C-2 1.375 -2 1.375 0 0 Z " fill="#131A1C" transform="translate(254,538)"/>
<path d="M0 0 C2 2 2 2 2 5 C0 6.6875 0 6.6875 -2 8 C-2.66 7.67 -3.32 7.34 -4 7 C-2.68 4.69 -1.36 2.38 0 0 Z " fill="#20272B" transform="translate(254,533)"/>
<path d="M0 0 C0.99 1.32 1.98 2.64 3 4 C2.01 4.99 1.02 5.98 0 7 C-0.66 5.68 -1.32 4.36 -2 3 C-1.34 2.01 -0.68 1.02 0 0 Z " fill="#2E393D" transform="translate(372,474)"/>
</svg>
